<svg width="96" height="26" viewBox="0 0 96 26" fill="none" xmlns="http://www.w3.org/2000/svg">
<path fill-rule="evenodd" clip-rule="evenodd" d="M0 24.6058V19.8635H1.03154V24.6058H0ZM5.37375 24.6058H4.39448V22.8525C4.39448 22.4816 4.37357 22.2416 4.33176 22.1327C4.28994 22.0238 4.22198 21.9392 4.12789 21.8788C4.03379 21.8184 3.92053 21.7882 3.78811 21.7882C3.61851 21.7882 3.46633 21.8313 3.33158 21.9176C3.19683 22.0039 3.10448 22.1182 3.05453 22.2605C3.00458 22.4028 2.97961 22.6659 2.97961 23.0498V24.6058H2.00034V21.1704H2.90991V21.675C3.23284 21.2868 3.63942 21.0927 4.12963 21.0927C4.3457 21.0927 4.54317 21.1288 4.72207 21.2011C4.90096 21.2733 5.03629 21.3655 5.12806 21.4777C5.21983 21.5898 5.28372 21.7171 5.31973 21.8594C5.35574 22.0017 5.37375 22.2055 5.37375 22.4708V24.6058ZM5.9383 21.1704H6.48195V20.9116C6.48195 20.6226 6.51505 20.4069 6.58127 20.2646C6.64748 20.1223 6.76945 20.0064 6.94718 19.9169C7.12492 19.8274 7.34969 19.7826 7.62152 19.7826C7.90031 19.7826 8.1733 19.8214 8.44047 19.8991L8.30805 20.5331C8.15239 20.4986 8.00254 20.4813 7.85849 20.4813C7.71677 20.4813 7.61513 20.5121 7.55356 20.5735C7.49199 20.635 7.46121 20.7531 7.46121 20.9277V21.1704H8.19304V21.8853H7.46121V24.6058H6.48195V21.8853H5.9383V21.1704ZM8.74367 24.6058V19.8635H9.72293V24.6058H8.74367ZM10.5001 22.8395C10.5001 22.5376 10.5802 22.2454 10.7405 21.9629C10.9008 21.6804 11.1279 21.4647 11.4218 21.3159C11.7157 21.1671 12.0439 21.0927 12.4063 21.0927C12.9662 21.0927 13.4251 21.2615 13.7829 21.599C14.1406 21.9365 14.3195 22.3629 14.3195 22.8784C14.3195 23.3981 14.1389 23.8289 13.7776 24.1707C13.4164 24.5125 12.9616 24.6834 12.4133 24.6834C12.0741 24.6834 11.7506 24.6122 11.4427 24.4699C11.1349 24.3276 10.9008 24.1189 10.7405 23.844C10.5802 23.569 10.5001 23.2342 10.5001 22.8395ZM11.5037 22.8881C11.5037 23.2288 11.5908 23.4898 11.7651 23.6709C11.9393 23.8521 12.1542 23.9426 12.4098 23.9426C12.6654 23.9426 12.8797 23.8521 13.0528 23.6709C13.2259 23.4898 13.3124 23.2267 13.3124 22.8816C13.3124 22.5452 13.2259 22.2864 13.0528 22.1052C12.8797 21.9241 12.6654 21.8335 12.4098 21.8335C12.1542 21.8335 11.9393 21.9241 11.7651 22.1052C11.5908 22.2864 11.5037 22.5473 11.5037 22.8881ZM16.7834 21.1704V21.895H16.1143V23.2795C16.1143 23.5598 16.1207 23.7232 16.1334 23.7696C16.1462 23.8159 16.1753 23.8542 16.2206 23.8844C16.2659 23.9146 16.321 23.9297 16.3861 23.9297C16.4767 23.9297 16.608 23.9006 16.7799 23.8424L16.8635 24.5476C16.6358 24.6381 16.378 24.6834 16.0899 24.6834C15.9133 24.6834 15.7542 24.6559 15.6124 24.6009C15.4707 24.5459 15.3668 24.4748 15.3005 24.3874C15.2343 24.3001 15.1884 24.182 15.1629 24.0332C15.142 23.9275 15.1315 23.714 15.1315 23.3927V21.895H14.682V21.1704H15.1315V20.4878L16.1143 19.9573V21.1704H16.7834ZM22.7217 22.8622L23.7219 23.1566C23.5685 23.6741 23.3135 24.0585 22.9569 24.3098C22.6003 24.561 22.1478 24.6866 21.5995 24.6866C20.9211 24.6866 20.3636 24.4715 19.9268 24.0413C19.49 23.6111 19.2716 23.0229 19.2716 22.2767C19.2716 21.4874 19.4912 20.8744 19.9303 20.4377C20.3694 20.001 20.9467 19.7826 21.6623 19.7826C22.2872 19.7826 22.7949 19.9541 23.1852 20.297C23.4175 20.4997 23.5918 20.7908 23.7079 21.1704L22.6868 21.3968C22.6264 21.151 22.5004 20.9569 22.3087 20.8145C22.1171 20.6722 21.8841 20.601 21.61 20.601C21.2313 20.601 20.9241 20.7272 20.6882 20.9795C20.4524 21.2318 20.3345 21.6405 20.3345 22.2055C20.3345 22.805 20.4507 23.232 20.683 23.4865C20.9153 23.741 21.2174 23.8682 21.5891 23.8682C21.8632 23.8682 22.0991 23.7874 22.2965 23.6256C22.494 23.4639 22.6357 23.2094 22.7217 22.8622ZM25.5375 24.6058H24.5582V21.1704H25.4678V21.6588C25.6235 21.4281 25.7634 21.276 25.8877 21.2027C26.012 21.1294 26.1532 21.0927 26.3112 21.0927C26.5342 21.0927 26.7491 21.1499 26.9559 21.2642L26.6527 22.0567C26.4877 21.9575 26.3344 21.9079 26.1927 21.9079C26.0556 21.9079 25.9394 21.943 25.8442 22.013C25.7489 22.0831 25.674 22.2098 25.6194 22.3931C25.5648 22.5764 25.5375 22.9603 25.5375 23.5447V24.6058ZM29.8135 24.6058V24.0914C29.6787 24.2747 29.5016 24.4192 29.282 24.5249C29.0625 24.6306 28.8308 24.6834 28.5868 24.6834C28.3382 24.6834 28.1152 24.6327 27.9177 24.5314C27.7202 24.43 27.5773 24.2877 27.4891 24.1044C27.4008 23.9211 27.3566 23.6677 27.3566 23.3442V21.1704H28.3359V22.749C28.3359 23.232 28.3539 23.528 28.3899 23.6369C28.4259 23.7458 28.4916 23.8321 28.5868 23.8957C28.6821 23.9593 28.8029 23.9912 28.9492 23.9912C29.1165 23.9912 29.2664 23.9486 29.3988 23.8634C29.5312 23.7782 29.6218 23.6725 29.6706 23.5464C29.7194 23.4202 29.7438 23.1113 29.7438 22.6196V21.1704H30.7231V24.6058H29.8135ZM31.7372 20.7045V19.8635H32.7164V20.7045H31.7372ZM31.7372 24.6058V21.1704H32.7164V24.6058H31.7372ZM33.3751 23.6256L34.3578 23.4865C34.3997 23.6634 34.4845 23.7976 34.6122 23.8893C34.74 23.9809 34.9189 24.0267 35.1489 24.0267C35.4022 24.0267 35.5927 23.9836 35.7204 23.8973C35.8064 23.837 35.8494 23.7561 35.8494 23.6547C35.8494 23.5857 35.8262 23.5286 35.7797 23.4833C35.7309 23.4402 35.6217 23.4003 35.4521 23.3636C34.6622 23.2018 34.1615 23.0541 33.9501 22.9204C33.6574 22.735 33.511 22.4772 33.511 22.1473C33.511 21.8497 33.6376 21.5995 33.8909 21.3968C34.1441 21.1941 34.5367 21.0927 35.0688 21.0927C35.5752 21.0927 35.9516 21.1693 36.1979 21.3224C36.4441 21.4755 36.6137 21.702 36.7067 22.0017L35.7832 22.1602C35.7437 22.0265 35.6688 21.9241 35.5584 21.8529C35.448 21.7817 35.2906 21.7462 35.0862 21.7462C34.8283 21.7462 34.6436 21.7796 34.5321 21.8464C34.4577 21.8939 34.4206 21.9554 34.4206 22.0308C34.4206 22.0955 34.4531 22.1505 34.5181 22.1958C34.6064 22.2562 34.9114 22.3414 35.4329 22.4514C35.9545 22.5613 36.3187 22.6961 36.5255 22.8557C36.7299 23.0175 36.8321 23.2428 36.8321 23.5318C36.8321 23.8467 36.6904 24.1173 36.407 24.3438C36.1235 24.5702 35.7042 24.6834 35.1489 24.6834C34.6448 24.6834 34.2457 24.5885 33.9518 24.3987C33.6579 24.209 33.4657 23.9513 33.3751 23.6256ZM39.8326 23.5124L40.8084 23.6644C40.683 23.9965 40.4849 24.2494 40.2142 24.423C39.9436 24.5966 39.605 24.6834 39.1984 24.6834C38.5548 24.6834 38.0786 24.4882 37.7696 24.0979C37.5256 23.7852 37.4037 23.3906 37.4037 22.9139C37.4037 22.3446 37.564 21.8987 37.8846 21.5763C38.2052 21.2539 38.6106 21.0927 39.1008 21.0927C39.6514 21.0927 40.0859 21.2615 40.4042 21.599C40.7225 21.9365 40.8746 22.4535 40.8607 23.1501H38.4073C38.4143 23.4197 38.4933 23.6294 38.6443 23.7793C38.7953 23.9292 38.9835 24.0041 39.2088 24.0041C39.3622 24.0041 39.4911 23.9653 39.5957 23.8876C39.7002 23.81 39.7792 23.6849 39.8326 23.5124ZM39.8884 22.5937C39.8814 22.3306 39.8083 22.1306 39.6689 21.9936C39.5295 21.8567 39.3599 21.7882 39.1601 21.7882C38.9463 21.7882 38.7698 21.8605 38.6304 22.005C38.491 22.1494 38.4224 22.3457 38.4247 22.5937H39.8884ZM48.1686 24.0267L47.5761 24.7287C47.2857 24.5971 47.0069 24.416 46.7398 24.1852C46.533 24.3578 46.3134 24.485 46.0811 24.567C45.8488 24.6489 45.5723 24.6899 45.2517 24.6899C44.6151 24.6899 44.1365 24.5238 43.8159 24.1917C43.5673 23.9351 43.443 23.6396 43.443 23.3054C43.443 23.0013 43.5406 22.7279 43.7358 22.4853C43.9309 22.2427 44.2225 22.0319 44.6105 21.8529C44.4362 21.661 44.305 21.4782 44.2167 21.3046C44.1284 21.131 44.0843 20.9666 44.0843 20.8113C44.0843 20.5245 44.208 20.2813 44.4554 20.0818C44.7028 19.8823 45.0554 19.7826 45.5131 19.7826C45.9545 19.7826 46.2995 19.8872 46.5481 20.0964C46.7967 20.3056 46.921 20.5611 46.921 20.863C46.921 21.055 46.8594 21.2372 46.7363 21.4097C46.6131 21.5823 46.3646 21.7774 45.9905 21.9952L46.7014 22.8654C46.7851 22.7274 46.8571 22.5473 46.9175 22.3252L47.8027 22.5128C47.7144 22.804 47.6377 23.0169 47.5727 23.1517C47.5076 23.2865 47.4379 23.3992 47.3636 23.4898C47.4728 23.5846 47.6139 23.6887 47.787 23.8019C47.9601 23.9151 48.0873 23.9901 48.1686 24.0267ZM45.5026 21.4486L45.7675 21.2609C45.9626 21.1208 46.0602 20.9817 46.0602 20.8436C46.0602 20.7272 46.0132 20.628 45.9191 20.546C45.825 20.4641 45.6978 20.4231 45.5375 20.4231C45.3818 20.4231 45.2598 20.4592 45.1716 20.5315C45.0833 20.6037 45.0391 20.6873 45.0391 20.7822C45.0391 20.8943 45.1135 21.0302 45.2622 21.1898L45.5026 21.4486ZM45.1193 22.4352C44.8939 22.5409 44.7255 22.6681 44.614 22.8169C44.5024 22.9657 44.4467 23.1177 44.4467 23.273C44.4467 23.4693 44.5158 23.6294 44.654 23.7534C44.7923 23.8774 44.9776 23.9394 45.2099 23.9394C45.3632 23.9394 45.5107 23.9114 45.6525 23.8553C45.7942 23.7992 45.9487 23.7065 46.116 23.5771L45.1193 22.4352ZM50.7927 24.6058V19.8635H54.2951V20.6657H51.8243V21.7882H53.957V22.5905H51.8243V24.6058H50.7927ZM57.2817 23.5124L58.2574 23.6644C58.132 23.9965 57.9339 24.2494 57.6632 24.423C57.3926 24.5966 57.054 24.6834 56.6474 24.6834C56.0038 24.6834 55.5276 24.4882 55.2186 24.0979C54.9746 23.7852 54.8527 23.3906 54.8527 22.9139C54.8527 22.3446 55.013 21.8987 55.3336 21.5763C55.6542 21.2539 56.0596 21.0927 56.5498 21.0927C57.1004 21.0927 57.5349 21.2615 57.8532 21.599C58.1715 21.9365 58.3236 22.4535 58.3097 23.1501H55.8563C55.8633 23.4197 55.9423 23.6294 56.0933 23.7793C56.2443 23.9292 56.4325 24.0041 56.6578 24.0041C56.8112 24.0041 56.9401 23.9653 57.0447 23.8876C57.1492 23.81 57.2282 23.6849 57.2817 23.5124ZM57.3374 22.5937C57.3304 22.3306 57.2573 22.1306 57.1179 21.9936C56.9785 21.8567 56.8089 21.7882 56.6091 21.7882C56.3953 21.7882 56.2187 21.8605 56.0793 22.005C55.9399 22.1494 55.8714 22.3457 55.8737 22.5937H57.3374ZM60.0452 24.6058H59.0659V21.1704H59.9755V21.6588C60.1312 21.4281 60.2711 21.276 60.3954 21.2027C60.5197 21.1294 60.6609 21.0927 60.8188 21.0927C61.0419 21.0927 61.2568 21.1499 61.4636 21.2642L61.1604 22.0567C60.9954 21.9575 60.8421 21.9079 60.7004 21.9079C60.5633 21.9079 60.4471 21.943 60.3519 22.013C60.2566 22.0831 60.1817 22.2098 60.1271 22.3931C60.0725 22.5764 60.0452 22.9603 60.0452 23.5447V24.6058ZM62.8227 24.6058H61.8434V21.1704H62.753V21.6588C62.9086 21.4281 63.0486 21.276 63.1729 21.2027C63.2972 21.1294 63.4384 21.0927 63.5963 21.0927C63.8194 21.0927 64.0343 21.1499 64.2411 21.2642L63.9379 22.0567C63.7729 21.9575 63.6196 21.9079 63.4779 21.9079C63.3408 21.9079 63.2246 21.943 63.1294 22.013C63.0341 22.0831 62.9592 22.2098 62.9046 22.3931C62.85 22.5764 62.8227 22.9603 62.8227 23.5447V24.6058ZM64.1992 21.1704H65.2412L66.1264 23.6094L66.9906 21.1704H68.0048L66.6979 24.4764L66.4644 25.0748C66.3785 25.2754 66.2966 25.4285 66.2187 25.5342C66.1409 25.6399 66.0515 25.7256 65.9504 25.7914C65.8493 25.8571 65.725 25.9083 65.5775 25.945C65.43 25.9817 65.2633 26 65.0774 26C64.8892 26 64.7045 25.9817 64.5233 25.945L64.4362 25.2333C64.5895 25.2614 64.7278 25.2754 64.8509 25.2754C65.0786 25.2754 65.247 25.2134 65.3562 25.0894C65.4654 24.9654 65.549 24.8074 65.6071 24.6155L64.1992 21.1704ZM70.615 19.8635H71.6465V22.432C71.6465 22.8395 71.6593 23.1037 71.6848 23.2245C71.729 23.4186 71.8341 23.5744 72.0002 23.6919C72.1663 23.8095 72.3934 23.8682 72.6815 23.8682C72.9743 23.8682 73.195 23.8127 73.3437 23.7016C73.4923 23.5906 73.5818 23.4542 73.612 23.2924C73.6422 23.1307 73.6573 22.8622 73.6573 22.4869V19.8635H74.6888V22.3543C74.6888 22.9237 74.661 23.3259 74.6052 23.5609C74.5494 23.796 74.4466 23.9944 74.2968 24.1561C74.1469 24.3179 73.9465 24.4467 73.6956 24.5427C73.4447 24.6387 73.1171 24.6866 72.7129 24.6866C72.225 24.6866 71.855 24.6344 71.6029 24.5298C71.3509 24.4252 71.1516 24.2893 71.0053 24.1222C70.8589 23.955 70.7625 23.7798 70.716 23.5965C70.6486 23.3248 70.615 22.9237 70.615 22.3931V19.8635ZM75.7343 24.6058V19.8635H76.7136V22.3802L77.8601 21.1704H79.0659L77.8009 22.4255L79.1565 24.6058H78.1006L77.1701 23.0628L76.7136 23.5059V24.6058H75.7343ZM80.6759 24.6058H79.6967V21.1704H80.6062V21.6588C80.7619 21.4281 80.9019 21.276 81.0262 21.2027C81.1504 21.1294 81.2916 21.0927 81.4496 21.0927C81.6726 21.0927 81.8875 21.1499 82.0943 21.2642L81.7911 22.0567C81.6261 21.9575 81.4728 21.9079 81.3311 21.9079C81.194 21.9079 81.0778 21.943 80.9826 22.013C80.8873 22.0831 80.8124 22.2098 80.7578 22.3931C80.7032 22.5764 80.6759 22.9603 80.6759 23.5447V24.6058ZM83.2478 22.2185L82.3591 22.0697C82.459 21.7375 82.631 21.4917 82.8749 21.3321C83.1189 21.1725 83.4813 21.0927 83.9622 21.0927C84.399 21.0927 84.7242 21.1407 84.938 21.2367C85.1517 21.3326 85.3022 21.4545 85.3893 21.6022C85.4764 21.7499 85.52 22.0211 85.52 22.4158L85.5095 23.4768C85.5095 23.7787 85.5252 24.0014 85.5566 24.1448C85.5879 24.2882 85.6466 24.4419 85.7325 24.6058H84.7637C84.7382 24.5454 84.7068 24.4559 84.6696 24.3373C84.6534 24.2834 84.6418 24.2478 84.6348 24.2305C84.4675 24.3815 84.2886 24.4947 84.0981 24.5702C83.9076 24.6457 83.7043 24.6834 83.4883 24.6834C83.1072 24.6834 82.807 24.5874 82.5874 24.3955C82.3679 24.2036 82.2581 23.961 82.2581 23.6677C82.2581 23.4736 82.308 23.3005 82.4079 23.1485C82.5078 22.9964 82.6478 22.88 82.8279 22.7991C83.0079 22.7182 83.2675 22.6476 83.6067 22.5872C84.0644 22.5074 84.3816 22.433 84.5581 22.364V22.2734C84.5581 22.0988 84.5117 21.9742 84.4187 21.8998C84.3258 21.8254 84.1504 21.7882 83.8925 21.7882C83.7183 21.7882 83.5824 21.82 83.4848 21.8836C83.3872 21.9473 83.3082 22.0589 83.2478 22.2185ZM84.5581 22.956C84.4327 22.9948 84.234 23.0412 83.9622 23.0951C83.6904 23.149 83.5126 23.2018 83.429 23.2536C83.3012 23.3377 83.2373 23.4445 83.2373 23.5739C83.2373 23.7011 83.2884 23.8111 83.3907 23.9038C83.4929 23.9965 83.623 24.0429 83.781 24.0429C83.9576 24.0429 84.126 23.989 84.2863 23.8812C84.4048 23.7992 84.4826 23.6989 84.5198 23.5803C84.5453 23.5027 84.5581 23.355 84.5581 23.1371V22.956ZM86.4853 20.7045V19.8635H87.4646V20.7045H86.4853ZM86.4853 24.6058V21.1704H87.4646V24.6058H86.4853ZM91.8346 24.6058H90.8554V22.8525C90.8554 22.4816 90.8345 22.2416 90.7927 22.1327C90.7508 22.0238 90.6829 21.9392 90.5888 21.8788C90.4947 21.8184 90.3814 21.7882 90.249 21.7882C90.0794 21.7882 89.9272 21.8313 89.7925 21.9176C89.6577 22.0039 89.5654 22.1182 89.5154 22.2605C89.4655 22.4028 89.4405 22.6659 89.4405 23.0498V24.6058H88.4612V21.1704H89.3708V21.675C89.6937 21.2868 90.1003 21.0927 90.5905 21.0927C90.8066 21.0927 91.0041 21.1288 91.183 21.2011C91.3619 21.2733 91.4972 21.3655 91.589 21.4777C91.6807 21.5898 91.7446 21.7171 91.7806 21.8594C91.8166 22.0017 91.8346 22.2055 91.8346 22.4708V24.6058ZM94.9711 23.5124L95.9468 23.6644C95.8214 23.9965 95.6233 24.2494 95.3527 24.423C95.082 24.5966 94.7434 24.6834 94.3368 24.6834C93.6933 24.6834 93.217 24.4882 92.908 24.0979C92.6641 23.7852 92.5421 23.3906 92.5421 22.9139C92.5421 22.3446 92.7024 21.8987 93.023 21.5763C93.3436 21.2539 93.749 21.0927 94.2392 21.0927C94.7899 21.0927 95.2243 21.2615 95.5426 21.599C95.8609 21.9365 96.0131 22.4535 95.9991 23.1501H93.5457C93.5527 23.4197 93.6317 23.6294 93.7827 23.7793C93.9337 23.9292 94.1219 24.0041 94.3473 24.0041C94.5006 24.0041 94.6295 23.9653 94.7341 23.8876C94.8386 23.81 94.9176 23.6849 94.9711 23.5124ZM95.0268 22.5937C95.0199 22.3306 94.9467 22.1306 94.8073 21.9936C94.6679 21.8567 94.4983 21.7882 94.2985 21.7882C94.0847 21.7882 93.9082 21.8605 93.7688 22.005C93.6294 22.1494 93.5608 22.3457 93.5631 22.5937H95.0268Z" fill="#2281D6"/>
<path fill-rule="evenodd" clip-rule="evenodd" d="M0 0H6.31425V17.9773H0V0ZM8.30207 18.087V0.109618H15.7856C19.6443 3.72701 23.3861 7.3444 27.2448 10.8522V0.109618H49.6955V14.0311H56.3605C53.4373 8.33096 56.3605 2.41159 61.8563 0.109618H96V5.26166H89.1011V18.087H82.7868V5.26166H75.8879C78.4604 10.1945 74.9525 16.6619 69.2229 18.087H43.2643V5.26166H33.676V8.33096H40.5749V13.2638H33.676V18.087H26.1924C22.3337 14.4696 18.592 10.8522 14.8502 7.23478V18.087H8.30207ZM66.0658 4.16548C69.106 4.16548 71.5615 6.35784 71.5615 8.98867C71.5615 11.6195 69.106 13.8119 66.0658 13.8119C63.0256 13.8119 60.57 11.6195 60.57 8.98867C60.57 6.24822 63.0256 4.16548 66.0658 4.16548Z" fill="#2281D6"/>
</svg>
