<svg width="14" height="13" viewBox="0 0 14 13" fill="none" xmlns="http://www.w3.org/2000/svg">
<path fill-rule="evenodd" clip-rule="evenodd" d="M3.91153 5.31122V12.9469H0.686343V5.31122H3.91153ZM1.08949 3.63071C0.766971 3.29351 0.605713 2.89107 0.605713 2.42335C0.605713 1.95563 0.769658 1.55318 1.09755 1.21599C1.42545 0.878798 1.82591 0.710205 2.29894 0.710205C2.77196 0.710205 3.17242 0.878798 3.50032 1.21599C3.82821 1.55318 3.99216 1.95563 3.99216 2.42335C3.99216 2.89107 3.82821 3.29351 3.50032 3.63071C3.17242 3.9679 2.77196 4.13649 2.29894 4.13649C1.82591 4.13649 1.42276 3.9679 1.08949 3.63071ZM10.249 12.9469V8.65592C10.249 8.43838 10.1845 8.25891 10.0555 8.11751C9.9265 7.9761 9.75986 7.9054 9.5556 7.9054C9.35134 7.9054 9.18471 7.9761 9.0557 8.11751C8.92669 8.25891 8.86219 8.43838 8.86219 8.65592V12.9469H5.637V5.31122H8.86219V6.15963C9.41047 5.46349 10.1523 5.11543 11.0876 5.11543C11.7864 5.11543 12.3588 5.36288 12.805 5.85779C13.2511 6.3527 13.4742 7.02435 13.4742 7.87277V12.9469H10.249Z" fill="#2281D6"/>
</svg>
