<svg width="32" height="32" viewBox="0 0 32 32" fill="none" xmlns="http://www.w3.org/2000/svg">
<path fill-rule="evenodd" clip-rule="evenodd" d="M16.0013 14.1147L23.0585 7.05752C23.5792 6.53682 24.4234 6.53682 24.9441 7.05752C25.4648 7.57822 25.4648 8.42244 24.9441 8.94313L17.8869 16.0003L24.9441 23.0575C25.4648 23.5782 25.4648 24.4224 24.9441 24.9431C24.4234 25.4638 23.5792 25.4638 23.0585 24.9431L16.0013 17.8859L8.94411 24.9431C8.42341 25.4638 7.57919 25.4638 7.05849 24.9431C6.53779 24.4224 6.53779 23.5782 7.05849 23.0575L14.1157 16.0003L7.05849 8.94313C6.53779 8.42244 6.53779 7.57822 7.05849 7.05752C7.57919 6.53682 8.42341 6.53682 8.94411 7.05752L16.0013 14.1147Z" fill="black"/>
<mask id="mask0" mask-type="alpha" maskUnits="userSpaceOnUse" x="6" y="6" width="20" height="20">
<path fill-rule="evenodd" clip-rule="evenodd" d="M16.0013 14.1147L23.0585 7.05752C23.5792 6.53682 24.4234 6.53682 24.9441 7.05752C25.4648 7.57822 25.4648 8.42244 24.9441 8.94313L17.8869 16.0003L24.9441 23.0575C25.4648 23.5782 25.4648 24.4224 24.9441 24.9431C24.4234 25.4638 23.5792 25.4638 23.0585 24.9431L16.0013 17.8859L8.94411 24.9431C8.42341 25.4638 7.57919 25.4638 7.05849 24.9431C6.53779 24.4224 6.53779 23.5782 7.05849 23.0575L14.1157 16.0003L7.05849 8.94313C6.53779 8.42244 6.53779 7.57822 7.05849 7.05752C7.57919 6.53682 8.42341 6.53682 8.94411 7.05752L16.0013 14.1147Z" fill="white"/>
</mask>
<g mask="url(#mask0)">
<rect width="32" height="32" fill="#2281D6"/>
</g>
</svg>
