<svg width="20" height="20" viewBox="0 0 20 20" fill="none" xmlns="http://www.w3.org/2000/svg">
<path d="M10.1506 3.88129L10.9233 3.41834C11.0622 3.33517 11.1074 3.15527 11.0242 3.01642C10.941 2.87772 10.7611 2.83255 10.6223 2.91571L9.84943 3.37866C9.71072 3.46182 9.66556 3.64188 9.74872 3.78058C9.80365 3.87228 9.9007 3.9231 10.0003 3.9231C10.0516 3.9231 10.1035 3.90967 10.1506 3.88129Z" fill="#2281D6"/>
<path fill-rule="evenodd" clip-rule="evenodd" d="M18.3778 7.25998C19.2723 7.25998 20 6.53229 20 5.63782V1.62216C20 0.727692 19.2723 0 18.3778 0H1.62216C0.727692 0 0 0.727692 0 1.62216V5.63766C0 6.53214 0.727692 7.25998 1.62216 7.25998H2.35199L3.52646 17.3532H0.933075C0.418549 17.3532 0 17.7718 0 18.2863C0 19.2241 0.762939 19.987 1.70074 19.987H18.2993C19.2371 19.987 20 19.2241 20 18.2863C20 17.7718 19.5815 17.3532 19.0669 17.3532H16.4737L16.5762 16.4716C16.595 16.3107 16.4798 16.1653 16.3191 16.1467C16.1584 16.1279 16.013 16.2431 15.9943 16.4038L15.8838 17.3532H12.2876C13.6847 16.0886 13.7346 13.7077 13.7082 12.9077C13.7009 12.6909 13.5254 12.5211 13.3084 12.5211H6.69159C6.47476 12.5211 6.29913 12.6909 6.29196 12.9077C6.26556 13.7077 6.31546 16.0884 7.7124 17.3532H4.11636L2.94189 7.25998H3.66135C3.82309 7.25998 3.95432 7.12875 3.95432 6.96701C3.95432 6.80527 3.82309 6.67404 3.66135 6.67404H1.62216C1.05072 6.67404 0.585938 6.20911 0.585938 5.63782V1.62216C0.585938 1.05087 1.05072 0.585938 1.62216 0.585938H18.3778C18.9491 0.585938 19.4141 1.05072 19.4141 1.62216V5.63766C19.4141 6.20911 18.9493 6.67404 18.3778 6.67404H5.02457C4.86267 6.67404 4.7316 6.80511 4.7316 6.96701C4.7316 7.12875 4.86267 7.25998 5.02457 7.25998H6.98578V8.45581C6.98578 9.20761 7.47101 9.84787 8.14453 10.081V10.6143C8.14453 11.0226 8.47687 11.355 8.88519 11.355H9.09698C9.50531 11.355 9.83765 11.0226 9.83765 10.6143V10.1753H10.1625V10.6143C10.1625 11.0226 10.4947 11.355 10.9032 11.355H11.1148C11.5233 11.355 11.8555 11.0226 11.8555 10.6143V10.081C12.1829 9.96765 12.4661 9.75845 12.6703 9.48654H14.0218C14.1284 9.66263 14.3213 9.78104 14.5418 9.78104H16.7648L16.153 15.0398C16.1342 15.2005 16.2494 15.3459 16.4101 15.3647C16.4215 15.3659 16.433 15.3667 16.4442 15.3667C16.5909 15.3667 16.7175 15.2567 16.7349 15.1076L17.3546 9.78104H19.3919C19.7272 9.78104 20 9.50821 20 9.17282V8.13995C20 7.80457 19.7272 7.53174 19.3919 7.53174H17.6164L17.648 7.25998H18.3778ZM6.87378 13.107H13.1262C13.136 14.1104 12.9756 16.6084 11.2132 17.3532H8.78677C7.02423 16.6083 6.86401 14.1104 6.87378 13.107ZM19.4141 18.2863C19.4141 18.0948 19.2584 17.9391 19.0669 17.9391H0.933075C0.741577 17.9391 0.585938 18.0948 0.585938 18.2863C0.585938 18.9009 1.08612 19.4011 1.70074 19.4011H18.2993C18.9139 19.4011 19.4141 18.9009 19.4141 18.2863ZM9.25156 10.6143C9.25156 10.6996 9.18213 10.769 9.09683 10.769H8.88519C8.7999 10.769 8.73047 10.6996 8.73047 10.6143V10.1755H9.25156V10.6143ZM11.1148 10.769C11.2001 10.769 11.2695 10.6996 11.2695 10.6143V10.1755H10.7484V10.6143C10.7484 10.6996 10.8179 10.769 10.9032 10.769H11.1148ZM12.4284 8.45581C12.4284 9.08096 11.9199 9.58954 11.2947 9.58954H8.70529C8.08029 9.58954 7.57172 9.08096 7.57172 8.45581V7.25998H12.4284V8.45581ZM12.9556 8.9006H13.9336V8.41232H13.0144V8.45581C13.0144 8.60962 12.9938 8.7587 12.9556 8.9006ZM14.0216 7.82639H13.0142V7.25998H17.0581L17.0265 7.53189H14.5416C14.3211 7.53174 14.1283 7.65015 14.0216 7.82639ZM19.4141 8.13995C19.4141 8.12775 19.4041 8.11768 19.3919 8.11768H14.5418C14.5294 8.11768 14.5195 8.12759 14.5195 8.1398V8.14011V9.16809L14.52 9.1748V9.17511C14.5212 9.18625 14.5303 9.1951 14.5418 9.1951H19.3919C19.4041 9.1951 19.4141 9.18518 19.4141 9.17282V8.13995Z" fill="#2281D6"/>
<path fill-rule="evenodd" clip-rule="evenodd" d="M9.99899 1.49805C11.1745 1.49805 12.1308 2.45432 12.1308 3.6297C12.1308 4.80524 11.1745 5.76151 9.99899 5.76151C8.82346 5.76151 7.86719 4.80524 7.86719 3.6297C7.86719 2.45432 8.82346 1.49805 9.99899 1.49805ZM9.99899 2.08398C9.14664 2.08398 8.45312 2.77734 8.45312 3.6297C8.45312 4.48206 9.14664 5.17557 9.99899 5.17557C10.8513 5.17557 11.5449 4.48206 11.5449 3.6297C11.5449 2.77734 10.8513 2.08398 9.99899 2.08398Z" fill="#2281D6"/>
<path fill-rule="evenodd" clip-rule="evenodd" d="M6.88742 2.93329V4.32718C6.88742 4.69324 6.58972 4.99094 6.22382 4.99094H2.06595C1.70004 4.99094 1.40234 4.69324 1.40234 4.32718V2.93329C1.40234 2.56723 1.70004 2.26953 2.06595 2.26953H6.22382C6.58972 2.26953 6.88742 2.56723 6.88742 2.93329ZM1.98813 2.93329V4.32718C1.98813 4.37006 2.02307 4.405 2.06595 4.405H6.22382C6.26669 4.405 6.30148 4.37006 6.30148 4.32718V2.93329C6.30148 2.89041 6.26669 2.85547 6.22382 2.85547H2.06595C2.02307 2.85547 1.98813 2.89041 1.98813 2.93329Z" fill="#2281D6"/>
<path fill-rule="evenodd" clip-rule="evenodd" d="M14.1731 2.26953C14.9234 2.26953 15.5338 2.87988 15.5338 3.63016C15.5338 4.38043 14.9234 4.99094 14.1731 4.99094C13.4229 4.99094 12.8125 4.38043 12.8125 3.63016C12.8125 2.87988 13.4229 2.26953 14.1731 2.26953ZM14.1731 2.85547C13.7459 2.85547 13.3983 3.20306 13.3983 3.63016C13.3983 4.0574 13.7459 4.405 14.1731 4.405C14.6002 4.405 14.9478 4.0574 14.9478 3.63016C14.9478 3.20306 14.6002 2.85547 14.1731 2.85547Z" fill="#2281D6"/>
<path fill-rule="evenodd" clip-rule="evenodd" d="M17.2356 2.26953C17.9859 2.26953 18.5964 2.87988 18.5964 3.63016C18.5964 4.38043 17.9859 4.99094 17.2356 4.99094C16.4854 4.99094 15.875 4.38043 15.875 3.63016C15.875 2.87988 16.4854 2.26953 17.2356 2.26953ZM17.2356 2.85547C16.8085 2.85547 16.4609 3.20306 16.4609 3.63016C16.4609 4.0574 16.8085 4.405 17.2356 4.405C17.6629 4.405 18.0103 4.0574 18.0103 3.63016C18.0103 3.20306 17.6629 2.85547 17.2356 2.85547Z" fill="#2281D6"/>
</svg>
