<svg width="32" height="32" viewBox="0 0 32 32" fill="none" xmlns="http://www.w3.org/2000/svg">
<path d="M24.7215 18.7647C24.7215 18.7647 20.9043 16.1007 20.8996 16.0974C20.6248 15.9057 20.2549 16.0068 20.0859 16.3152C19.9165 16.6243 20.0064 17.0451 20.2785 17.2348C20.2785 17.2348 24.0981 19.9005 24.1005 19.9021C24.3751 20.0937 24.7447 19.9951 24.9136 19.6843C25.0824 19.3734 24.9963 18.9563 24.7215 18.7647Z" fill="#2281D6"/>
<path d="M18.5034 15C18.1821 15 17.9398 15.304 18.0132 15.6148C18.0424 15.7386 18.1281 15.851 18.2409 15.922C18.3183 15.9707 18.4086 16 18.5023 16C18.6784 16 18.8389 15.9115 18.931 15.7626C19.1271 15.4453 18.8805 15 18.5034 15Z" fill="#2281D6"/>
<path d="M11.9101 16.3032C11.7427 16.005 11.3566 15.9086 11.0915 16.0959C11.0915 16.0959 7.28184 18.7817 7.27543 18.7862C7.00091 18.9797 6.91715 19.3943 7.09006 19.701C7.19399 19.8854 7.39456 19.9935 7.59311 19.9997C7.70482 20.0032 7.81587 19.9745 7.90877 19.909C7.90877 19.909 11.7221 17.22 11.7248 17.2181C11.9993 17.0246 12.0826 16.6103 11.9101 16.3032Z" fill="#2281D6"/>
<path d="M13.4992 15C13.2669 15 13.0634 15.1632 13.0121 15.3894C12.9421 15.6975 13.1861 16 13.5002 16C13.732 16 13.9367 15.8369 13.9878 15.6105C14.0579 15.3005 13.8161 15 13.4992 15Z" fill="#2281D6"/>
<path fill-rule="evenodd" clip-rule="evenodd" d="M30.9649 28.4061C31.2254 28.1796 31.6202 28.2071 31.8467 28.4676C32.0731 28.7282 32.0456 29.1229 31.785 29.3493L31.7684 29.3638C30.9734 30.0551 30.2155 30.7142 29.1769 31.0103C28.0414 31.334 26.8034 31.2284 25.746 30.6996C24.9455 30.299 24.0653 29.9598 23.1543 30.0223C22.4047 30.0739 21.7217 30.4361 21.0585 30.7878C20.8995 30.8721 20.7417 30.9558 20.5844 31.0345C19.2641 31.6948 17.7423 31.7094 16.4094 31.0746L14.8515 30.3327C13.3361 29.6111 12.026 30.2282 10.6684 30.9429C8.9847 31.829 7.31146 31.4824 5.69496 30.6742C3.90809 29.7805 2.38553 30.6755 1.03503 31.8496C0.771844 32.0785 0.369532 32.0367 0.153345 31.7881C-0.0730919 31.5275 -0.0455919 31.1328 0.214908 30.9063C1.52578 29.7664 2.90959 28.8547 4.7294 29.0902L4.74763 29.0925C4.96579 29.1206 5.90801 29.2415 5.96177 29.4224L2.71347 18.4923C2.63247 18.2198 2.74553 17.9269 2.98865 17.7796L6.00002 15.9548V10.626C6.00002 10.2808 6.27983 10.0009 6.62502 10.0009H7.87502V8.12577C7.87502 7.78061 8.15483 7.50071 8.50002 7.50071H10.4688V5.62553C10.4688 5.28038 10.7486 5.00047 11.0938 5.00047H14.125V0.625059C14.125 0.279902 14.4048 0 14.75 0H17.25C17.5952 0 17.875 0.279902 17.875 0.625059V5.00047H20.9062C21.2514 5.00047 21.5312 5.28038 21.5312 5.62553V7.50071H23.5C23.8452 7.50071 24.125 7.78061 24.125 8.12577V10.0009H25.375C25.7202 10.0009 26 10.2808 26 10.626V15.9548L29.0114 17.7797C29.2545 17.927 29.3676 18.2199 29.2866 18.4923L26.0317 29.4449C26.9114 29.8848 27.8352 30.0968 28.8073 29.8281C29.5944 29.6106 30.1727 29.1021 30.7664 28.5801C30.8323 28.5221 30.8983 28.464 30.9649 28.4061ZM24.75 15.1974V11.2511H18.2376L24.75 15.1974ZM15.375 1.25012H16.625V5.00047H15.375V1.25012ZM20.2812 6.25059H11.7188V7.50071H20.2812V6.25059ZM7.25002 11.2511H13.7624L7.25002 15.1974V11.2511ZM14.3675 28.8562C14.4841 28.8815 15.3749 29.0863 15.375 29.1974V11.7356L4.04909 18.5988L7.46702 30.0993C7.92977 30.2342 8.41914 30.2694 8.89727 30.2113L8.90177 30.2107C9.58974 30.1221 10.1872 29.7975 10.7853 29.4725L10.7853 29.4725L10.7855 29.4724L10.7856 29.4724C10.8988 29.4108 11.012 29.3493 11.1259 29.2894C12.112 28.7703 13.2798 28.6208 14.3675 28.8562ZM9.12502 10.0009V8.75083H22.875V10.0009H9.12502ZM23.0061 28.7647C23.1239 28.7523 24.8833 28.7505 24.8764 28.9439L27.9509 18.5988L16.625 11.7356V29.7927C17.7306 30.3194 18.8943 30.482 20.0253 29.9165C20.1658 29.8462 20.3059 29.7742 20.4461 29.7022C21.2613 29.2834 22.0804 28.8626 23.0061 28.7647Z" fill="#2281D6"/>
</svg>
