<svg width="23" height="32" viewBox="0 0 23 32" fill="none" xmlns="http://www.w3.org/2000/svg">
<path fill-rule="evenodd" clip-rule="evenodd" d="M22.3403 0.42113C21.9567 0.0875055 21.4504 -0.058057 20.9517 0.0211305L1.7518 3.07563C1.68169 3.08676 1.61608 3.11013 1.55642 3.14263C0.694046 3.38407 0.0585938 4.18763 0.0585938 5.13976V29.9283C0.0585938 31.0706 0.972998 31.9999 2.09698 31.9999H18.2274C19.1789 31.9999 19.9529 31.2133 19.9529 30.2464V28.9445L21.4897 28.6959C22.3323 28.5595 22.9439 27.8313 22.9439 26.9641V1.75357C22.944 1.24044 22.724 0.754755 22.3403 0.42113ZM18.7229 27.8778V29.1436V30.2464C18.7229 30.5241 18.5007 30.75 18.2274 30.75H8.79287H2.09698C1.65119 30.75 1.28854 30.3814 1.28854 29.9284V5.13982C1.28854 4.68676 1.65119 4.31819 2.09698 4.31819H2.46185H18.2274C18.5006 4.31819 18.7229 4.54407 18.7229 4.82182V27.8778ZM21.2964 27.4615C21.5384 27.4224 21.714 27.2132 21.7141 26.9643H21.714V1.75357C21.714 1.55188 21.6054 1.42726 21.5407 1.37101C21.4759 1.31469 21.3379 1.22463 21.1419 1.25613L9.75205 3.06813H18.2274C19.1789 3.06813 19.9529 3.85482 19.9529 4.82176V27.6789L21.2964 27.4615Z" fill="#2281D6"/>
<path d="M16.4675 9.87887C16.4375 9.79893 16.4055 9.71805 16.3724 9.63855C16.2399 9.32074 15.8789 9.17237 15.5662 9.30699C15.2534 9.44168 15.1074 9.80849 15.24 10.1263C15.2673 10.1918 15.2936 10.2582 15.3182 10.3239C16.0498 12.2752 15.6871 14.4831 14.3717 16.0859L10.0054 21.4062L5.63913 16.0859C3.74243 13.7747 3.89113 10.4271 5.98505 8.29899C7.59659 6.66118 10.0052 6.15899 12.1215 7.01993C12.4368 7.14818 12.7947 6.99243 12.921 6.67193C13.0472 6.35149 12.8938 5.98774 12.5786 5.85943C10.0048 4.81262 7.0754 5.42318 5.11542 7.41512C3.89187 8.65862 3.17499 10.3111 3.09695 12.0679C3.01885 13.8247 3.58629 15.536 4.69459 16.8866L9.53314 22.7825C9.64999 22.9249 9.82298 23.0072 10.0054 23.0072C10.1879 23.0072 10.3608 22.9249 10.4777 22.7825L15.3163 16.8867C16.916 14.9372 17.3572 12.252 16.4675 9.87887Z" fill="#2281D6"/>
<path d="M13.9038 24.3564H6.10716C5.76751 24.3564 5.49219 24.6363 5.49219 24.9814C5.49219 25.3266 5.76751 25.6064 6.10716 25.6064H13.9038C14.2434 25.6064 14.5188 25.3266 14.5188 24.9814C14.5188 24.6363 14.2434 24.3564 13.9038 24.3564Z" fill="#2281D6"/>
<path d="M17.0887 27.8357C17.0814 27.7958 17.0691 27.7564 17.0537 27.7189C17.0383 27.6808 17.0192 27.6446 16.9971 27.6109C16.975 27.5764 16.9491 27.5446 16.9209 27.5158C16.8926 27.4871 16.8612 27.4608 16.8274 27.4383C16.7942 27.4159 16.7585 27.3964 16.721 27.3808C16.6841 27.3652 16.6453 27.3527 16.606 27.3452C16.5267 27.3289 16.4455 27.3289 16.3655 27.3452C16.3268 27.3527 16.288 27.3652 16.2505 27.3808C16.2136 27.3964 16.178 27.4159 16.1448 27.4383C16.1109 27.4608 16.0796 27.4871 16.0513 27.5158C16.023 27.5446 15.9972 27.5764 15.9744 27.6109C15.9523 27.6446 15.9332 27.6808 15.9178 27.7189C15.9025 27.7564 15.8908 27.7958 15.8828 27.8358C15.8748 27.8758 15.8711 27.9171 15.8711 27.9577C15.8711 27.9982 15.8748 28.0396 15.8828 28.0796C15.8908 28.1196 15.9025 28.1589 15.9178 28.1971C15.9332 28.2346 15.9523 28.2708 15.9744 28.3046C15.9779 28.3099 15.982 28.3147 15.9857 28.3199C16.0058 28.3483 16.0274 28.3752 16.0513 28.3995C16.0796 28.4282 16.1109 28.4546 16.1448 28.4776C16.178 28.5001 16.2136 28.5189 16.2505 28.5345C16.288 28.5501 16.3268 28.5626 16.3655 28.5707C16.4055 28.5789 16.4461 28.5826 16.4861 28.5826C16.526 28.5826 16.5666 28.5788 16.606 28.5707C16.6453 28.5627 16.6841 28.5501 16.721 28.5345C16.7585 28.5189 16.7942 28.5001 16.8274 28.4776C16.8612 28.4546 16.8926 28.4282 16.9209 28.3995C16.9491 28.3707 16.975 28.3389 16.9971 28.3045C17.0192 28.2707 17.0383 28.2345 17.0537 28.197C17.0607 28.1796 17.0667 28.1619 17.0722 28.1441C17.0787 28.1228 17.0844 28.1013 17.0887 28.0795C17.0967 28.0394 17.101 27.9982 17.101 27.9576C17.101 27.917 17.0967 27.8757 17.0887 27.8357Z" fill="#2281D6"/>
<path d="M14.0094 27.333H3.52122C3.18157 27.333 2.90625 27.6129 2.90625 27.958C2.90625 28.3031 3.18157 28.583 3.52122 28.583H14.0094C14.3491 28.583 14.6244 28.3031 14.6244 27.958C14.6244 27.6129 14.3491 27.333 14.0094 27.333Z" fill="#2281D6"/>
<path fill-rule="evenodd" clip-rule="evenodd" d="M14.5373 12.6054L14.5371 12.595C14.5305 10.0655 12.5084 8.00884 10.02 7.99946C10.0156 7.99927 10.0111 7.99909 10.0066 7.99909L10.0031 7.99902C7.5029 7.99902 5.46875 10.0662 5.46875 12.6072L5.46887 12.6132L5.46924 12.6277C5.48025 15.1592 7.5096 17.2155 10.0031 17.2155C12.5032 17.2155 14.5374 15.1482 14.5374 12.6072L14.5373 12.6054ZM6.72625 12.1817C6.8926 10.8515 7.82705 9.76202 9.06265 9.3884C8.73315 10.4361 8.5692 11.5263 8.57092 12.6163C7.94592 12.5382 7.32831 12.3923 6.72625 12.1817ZM8.64828 13.8828C8.03325 13.82 7.4235 13.7007 6.82532 13.5252C7.13459 14.6293 7.98639 15.5028 9.06831 15.8277C8.86715 15.192 8.72737 14.5405 8.64828 13.8828ZM10.4112 15.9389C10.1643 15.2883 9.99243 14.6149 9.89539 13.9324C10.5465 13.918 11.1989 13.8412 11.8446 13.7001L13.2133 13.4013C12.8926 14.7401 11.7807 15.7666 10.4112 15.9389ZM9.80142 12.6828C10.3975 12.6743 10.9949 12.6071 11.5863 12.478L13.271 12.1101C13.0535 10.6264 11.8773 9.45727 10.4053 9.27477C9.99243 10.3683 9.79115 11.5263 9.80142 12.6828Z" fill="#2281D6"/>
<path d="M15.0614 7.73528C15.0534 7.69591 15.0417 7.65653 15.0263 7.61841C15.011 7.58091 14.9919 7.54466 14.9698 7.51091C14.9476 7.47653 14.9218 7.44459 14.8935 7.41584C14.8652 7.38709 14.8332 7.36084 14.8 7.33772C14.7662 7.31528 14.7305 7.29584 14.6936 7.28022C14.6567 7.26459 14.618 7.25278 14.5786 7.24466C14.4993 7.22834 14.4175 7.22834 14.3382 7.24466C14.2988 7.25278 14.2601 7.26459 14.2232 7.28022C14.1863 7.29584 14.1506 7.31528 14.1168 7.33772C14.0836 7.36084 14.0522 7.38709 14.0233 7.41584C13.995 7.44459 13.9698 7.47653 13.9471 7.51091C13.9249 7.54466 13.9059 7.58091 13.8905 7.61841C13.8751 7.65653 13.8634 7.69591 13.8554 7.73528C13.8474 7.77591 13.8438 7.81653 13.8438 7.85778C13.8438 7.89841 13.8474 7.93972 13.8554 7.97966C13.8634 8.01959 13.8751 8.05903 13.8905 8.09653C13.9059 8.13459 13.9249 8.17084 13.9471 8.20459C13.9698 8.23897 13.995 8.27091 14.0233 8.29966C14.0522 8.32841 14.0836 8.35466 14.1168 8.37716C14.1506 8.39959 14.1863 8.41903 14.2232 8.43466C14.2601 8.45028 14.2988 8.46209 14.3382 8.47022C14.3782 8.47834 14.4187 8.48272 14.4587 8.48272C14.4987 8.48272 14.5393 8.47834 14.5786 8.47022C14.618 8.46209 14.6567 8.45028 14.6936 8.43466C14.7305 8.41903 14.7662 8.39959 14.8 8.37716C14.8332 8.35466 14.8652 8.32841 14.8935 8.29966C14.9218 8.27091 14.9476 8.23897 14.9698 8.20459C14.9919 8.17084 15.011 8.13459 15.0263 8.09653C15.0417 8.05897 15.0534 8.01966 15.0614 7.97966C15.0694 7.93966 15.0737 7.89841 15.0737 7.85778C15.0737 7.81653 15.0694 7.77591 15.0614 7.73528Z" fill="#2281D6"/>
</svg>
