<svg width="81" height="83" viewBox="0 0 81 83" fill="none" xmlns="http://www.w3.org/2000/svg">
<path fill-rule="evenodd" clip-rule="evenodd" d="M40.5 81.8136C62.8675 81.8136 81 63.6275 81 41.1938C81 18.7601 62.8675 0.573975 40.5 0.573975C18.1325 0.573975 0 18.7601 0 41.1938C0 63.6275 18.1325 81.8136 40.5 81.8136Z" fill="#FF7506"/>
<path fill-rule="evenodd" clip-rule="evenodd" d="M25.9116 56.1537C24.9959 55.3111 24.4768 54.1203 24.4818 52.874L24.4818 48.4699C24.4364 46.2316 26.0655 44.3102 28.2778 43.9971C29.5934 43.823 30.8722 43.5035 32.103 43.0429C33.7125 42.4361 35.5307 42.825 36.7559 44.0401L37.8166 45.104C40.5304 43.369 42.8332 41.0594 44.563 38.3377L43.5081 37.2796C42.2908 36.0449 41.903 34.2214 42.5093 32.6037C42.9673 31.3727 43.2858 30.0901 43.4576 28.7838C43.7695 26.5702 45.6577 24.9416 47.8729 24.9634L52.2719 24.9634C53.5122 24.9645 54.6935 25.4879 55.5287 26.4056C56.364 27.3233 56.7762 28.5508 56.6647 29.7883C56.1551 34.6025 54.5297 39.2066 51.9178 43.2504C49.5502 46.9874 46.382 50.1649 42.6452 52.5465C38.643 55.1497 34.0747 56.7796 29.319 57.2978C28.0548 57.4127 26.8273 56.9963 25.9116 56.1537ZM27.4245 48.4534C27.4055 47.6679 27.9496 47.0239 28.6761 46.921C30.1985 46.7196 31.6933 46.3461 33.1353 45.8065C33.673 45.6038 34.279 45.7334 34.6816 46.1326L36.5499 48.0065C37.0182 48.4762 37.7417 48.5741 38.3174 48.2458C42.2307 46.0141 45.4708 42.7643 47.696 38.8395C48.0233 38.2621 47.9257 37.5365 47.4574 37.0668L45.5948 35.1988C45.191 34.7892 45.0617 34.1813 45.2651 33.6388C45.8019 32.1958 46.1743 30.6966 46.3732 29.1832C46.4766 28.4499 47.106 27.907 47.8589 27.9144L52.2709 27.9144C52.6839 27.9148 53.0777 28.0892 53.3561 28.3951C53.6345 28.701 53.7719 29.1102 53.737 29.4997C53.2785 33.83 51.8094 37.9911 49.4418 41.6568C47.2989 45.039 44.4398 47.9066 41.0561 50.0632C37.4286 52.4226 33.2998 53.8957 29.0281 54.3614C28.6155 54.3988 28.2064 54.2601 27.9011 53.9792C27.5959 53.6983 27.4228 53.3014 27.4245 52.88V48.4534ZM38.6298 45.9198L36.8624 45.6805C37.1857 45.4961 37.5038 45.3039 37.8164 45.104L38.6298 45.9198Z" fill="black"/>
<mask id="mask0" mask-type="alpha" maskUnits="userSpaceOnUse" x="24" y="24" width="33" height="34">
<path fill-rule="evenodd" clip-rule="evenodd" d="M25.9116 56.1537C24.9959 55.3111 24.4768 54.1203 24.4818 52.874L24.4818 48.4699C24.4364 46.2316 26.0655 44.3102 28.2778 43.9971C29.5934 43.823 30.8722 43.5035 32.103 43.0429C33.7125 42.4361 35.5307 42.825 36.7559 44.0401L37.8166 45.104C40.5304 43.369 42.8332 41.0594 44.563 38.3377L43.5081 37.2796C42.2908 36.0449 41.903 34.2214 42.5093 32.6037C42.9673 31.3727 43.2858 30.0901 43.4576 28.7838C43.7695 26.5702 45.6577 24.9416 47.8729 24.9634L52.2719 24.9634C53.5122 24.9645 54.6935 25.4879 55.5287 26.4056C56.364 27.3233 56.7762 28.5508 56.6647 29.7883C56.1551 34.6025 54.5297 39.2066 51.9178 43.2504C49.5502 46.9874 46.382 50.1649 42.6452 52.5465C38.643 55.1497 34.0747 56.7796 29.319 57.2978C28.0548 57.4127 26.8273 56.9963 25.9116 56.1537ZM27.4245 48.4534C27.4055 47.6679 27.9496 47.0239 28.6761 46.921C30.1985 46.7196 31.6933 46.3461 33.1353 45.8065C33.673 45.6038 34.279 45.7334 34.6816 46.1326L36.5499 48.0065C37.0182 48.4762 37.7417 48.5741 38.3174 48.2458C42.2307 46.0141 45.4708 42.7643 47.696 38.8395C48.0233 38.2621 47.9257 37.5365 47.4574 37.0668L45.5948 35.1988C45.191 34.7892 45.0617 34.1813 45.2651 33.6388C45.8019 32.1958 46.1743 30.6966 46.3732 29.1832C46.4766 28.4499 47.106 27.907 47.8589 27.9144L52.2709 27.9144C52.6839 27.9148 53.0777 28.0892 53.3561 28.3951C53.6345 28.701 53.7719 29.1102 53.737 29.4997C53.2785 33.83 51.8094 37.9911 49.4418 41.6568C47.2989 45.039 44.4398 47.9066 41.0561 50.0632C37.4286 52.4226 33.2998 53.8957 29.0281 54.3614C28.6155 54.3988 28.2064 54.2601 27.9011 53.9792C27.5959 53.6983 27.4228 53.3014 27.4245 52.88V48.4534ZM38.6298 45.9198L36.8624 45.6805C37.1857 45.4961 37.5038 45.3039 37.8164 45.104L38.6298 45.9198Z" fill="white"/>
</mask>
<g mask="url(#mask0)">
<rect width="35.3077" height="35.4122" transform="matrix(-1 0 0 1 58.1538 23.4877)" fill="white"/>
</g>
</svg>
