<svg width="24" height="24" viewBox="0 0 24 24" fill="none" xmlns="http://www.w3.org/2000/svg">
<path fill-rule="evenodd" clip-rule="evenodd" d="M17 3H7V8H17V3ZM19 8V2C19 1.44772 18.5523 1 18 1H6C5.44772 1 5 1.44772 5 2V8H4C2.34315 8 1 9.34315 1 11V16C1 17.6569 2.34315 19 4 19H5V22C5 22.5523 5.44772 23 6 23H18C18.5523 23 19 22.5523 19 22V19H20C21.6569 19 23 17.6569 23 16V11C23 9.34315 21.6569 8 20 8H19ZM5 14V17H4C3.44772 17 3 16.5523 3 16V11C3 10.4477 3.44772 10 4 10H6H18H20C20.5523 10 21 10.4477 21 11V16C21 16.5523 20.5523 17 20 17H19V14C19 13.4477 18.5523 13 18 13H6C5.44772 13 5 13.4477 5 14ZM17 21H7V15H17V21Z" fill="black"/>
<mask id="mask0" mask-type="alpha" maskUnits="userSpaceOnUse" x="1" y="1" width="22" height="22">
<path fill-rule="evenodd" clip-rule="evenodd" d="M17 3H7V8H17V3ZM19 8V2C19 1.44772 18.5523 1 18 1H6C5.44772 1 5 1.44772 5 2V8H4C2.34315 8 1 9.34315 1 11V16C1 17.6569 2.34315 19 4 19H5V22C5 22.5523 5.44772 23 6 23H18C18.5523 23 19 22.5523 19 22V19H20C21.6569 19 23 17.6569 23 16V11C23 9.34315 21.6569 8 20 8H19ZM5 14V17H4C3.44772 17 3 16.5523 3 16V11C3 10.4477 3.44772 10 4 10H6H18H20C20.5523 10 21 10.4477 21 11V16C21 16.5523 20.5523 17 20 17H19V14C19 13.4477 18.5523 13 18 13H6C5.44772 13 5 13.4477 5 14ZM17 21H7V15H17V21Z" fill="white"/>
</mask>
<g mask="url(#mask0)">
<rect width="24" height="24" fill="#2281D6"/>
</g>
</svg>
