<svg width="27" height="32" viewBox="0 0 27 32" fill="none" xmlns="http://www.w3.org/2000/svg">
<path fill-rule="evenodd" clip-rule="evenodd" d="M22.618 18.2577L26.9038 28.4853C26.9798 28.6667 26.944 28.875 26.8115 29.0213C26.6791 29.1675 26.4737 29.2259 26.2828 29.1712L22.1135 27.9769L20.0195 31.7357C19.9284 31.8993 19.7546 32 19.5672 32C19.5623 32 19.5573 31.9999 19.5524 31.9998C19.5478 31.9996 19.5431 31.9994 19.5385 31.9992C19.3402 31.9884 19.1658 31.8661 19.0898 31.6848L14.4187 20.5374C14.1161 20.5636 13.8102 20.5778 13.5009 20.5778C10.5044 20.5778 7.80015 19.3193 5.89926 17.3094L1.46376 27.8945L4.99773 26.8823C5.22957 26.8158 5.47746 26.9172 5.594 27.1265L7.36877 30.3124L10.9618 21.738C11.0709 21.4774 11.3731 21.3537 11.6367 21.4617C11.9003 21.5696 12.0254 21.8683 11.9163 22.1288L7.912 31.6848C7.83596 31.8661 7.66156 31.9884 7.46327 31.9993C7.45369 31.9997 7.44412 32 7.43461 32C7.2472 32 7.07342 31.8993 6.98222 31.7357L4.88835 27.9769L0.718983 29.1712C0.528261 29.2258 0.322661 29.1675 0.190279 29.0213C0.0578271 28.875 0.0219419 28.6667 0.0979138 28.4853L5.15132 16.4257C3.85835 14.7111 3.09216 12.5869 3.09216 10.289C3.09216 4.61563 7.76151 0 13.5009 0C19.2402 0 23.9095 4.61563 23.9094 10.289C23.9094 15.2949 20.2738 19.4766 15.4756 20.3913L19.6328 30.3124L21.4077 27.1265C21.5242 26.9172 21.772 26.8158 22.0039 26.8823L25.538 27.8945L21.6635 18.6485C21.5543 18.388 21.6795 18.0893 21.9431 17.9813C22.2067 17.8734 22.5089 17.9972 22.618 18.2577ZM13.5009 1.02128C8.33119 1.02128 4.12532 5.17876 4.12532 10.289C4.12532 15.3991 8.33119 19.5566 13.5009 19.5566C18.6705 19.5566 22.8763 15.3991 22.8763 10.289C22.8763 5.17876 18.6705 1.02128 13.5009 1.02128Z" fill="#2281D6"/>
<path fill-rule="evenodd" clip-rule="evenodd" d="M19.0611 8.02586C19.251 8.05739 19.4075 8.1907 19.4669 8.37167C19.5264 8.55271 19.4792 8.75138 19.3443 8.88721L16.8751 11.3734L17.3943 14.8195C17.4227 15.0077 17.3428 15.1959 17.187 15.3078C17.0971 15.3724 16.9906 15.4053 16.8833 15.4053C16.8048 15.4053 16.726 15.3876 16.6531 15.3518L13.4981 13.7986L10.343 15.3518C10.1707 15.4365 9.96479 15.4196 9.80913 15.3078C9.65333 15.1958 9.57343 15.0077 9.60181 14.8194L10.1211 11.3733L7.65189 8.88721C7.51695 8.75138 7.4697 8.55271 7.52921 8.37167C7.58872 8.19063 7.74515 8.05732 7.93504 8.02586L11.411 7.44925L13.04 4.35962C13.129 4.19083 13.3056 4.08496 13.4981 4.08496C13.6907 4.08496 13.8672 4.19083 13.9562 4.35962L15.5851 7.44925L19.0611 8.02586ZM15.8153 11.2723C15.7914 11.1139 15.844 10.9537 15.9576 10.8393L17.9126 8.87094L15.1604 8.41436C15.0006 8.38787 14.8627 8.28881 14.7878 8.14678L13.4981 5.70048L12.2083 8.14671C12.1335 8.28874 11.9955 8.3878 11.8357 8.41429L9.08357 8.87087L11.0387 10.8393C11.1522 10.9536 11.2049 11.1139 11.181 11.2723L10.7698 14.0007L13.2678 12.7711C13.3403 12.7353 13.4192 12.7175 13.4981 12.7175C13.577 12.7175 13.6558 12.7354 13.7284 12.7711L16.2265 14.0007L15.8153 11.2723Z" fill="#2281D6"/>
<path d="M21.3239 10.8044C21.0411 10.7671 20.7814 10.964 20.744 11.2436C20.2648 14.8185 17.15 17.5145 13.4986 17.5145C9.46833 17.5145 6.18941 14.2734 6.18941 10.2894C6.18941 6.30537 9.46833 3.06425 13.4986 3.06425C17.15 3.06425 20.2648 5.76014 20.744 9.33516C20.7814 9.61478 21.0415 9.81182 21.3239 9.7743C21.6067 9.73727 21.8057 9.48059 21.7681 9.20103C21.2212 5.12028 17.6661 2.04297 13.4986 2.04297C8.89864 2.04297 5.15625 5.74224 5.15625 10.2894C5.15625 14.8365 8.89864 18.5357 13.4986 18.5357C17.6661 18.5357 21.2213 15.4584 21.7682 11.3776C21.8057 11.0982 21.6068 10.8415 21.3239 10.8044Z" fill="#2281D6"/>
</svg>
