<svg width="20" height="20" viewBox="0 0 20 20" fill="none" xmlns="http://www.w3.org/2000/svg">
<path d="M19.394 15H0.524177C0.23484 15 0 15.2238 0 15.4996V19.4965C0 19.7723 0.23484 19.9961 0.524177 19.9961C0.813514 19.9961 1.04835 19.7723 1.04835 19.4965V15.9992H18.8698V19.4965C18.8698 19.7723 19.1047 19.9961 19.394 19.9961C19.6833 19.9961 19.9182 19.7723 19.9182 19.4965V15.4996C19.9181 15.2238 19.6833 15 19.394 15Z" fill="#2281D6"/>
<path d="M19.4252 17.9863H0.555427C0.26609 17.9863 0.03125 18.2102 0.03125 18.486C0.03125 18.7617 0.26609 18.9856 0.555427 18.9856H19.4252C19.7145 18.9856 19.9494 18.7617 19.9494 18.486C19.9494 18.2102 19.7145 17.9863 19.4252 17.9863Z" fill="#2281D6"/>
<path d="M19.4286 11.9905C19.1393 11.9905 18.9044 12.2143 18.9044 12.4901V13.1336L15.7144 6.292C15.597 6.03921 15.2867 5.92427 15.0225 6.03818C14.7573 6.15008 14.6388 6.44587 14.7562 6.69767L18.9495 15.6906C19.0355 15.8735 19.2252 15.9874 19.4286 15.9874C19.4642 15.9874 19.5009 15.9844 19.5376 15.9764C19.7798 15.9275 19.9528 15.7236 19.9528 15.4878V12.4901C19.9528 12.2143 19.718 11.9905 19.4286 11.9905Z" fill="#2281D6"/>
<path d="M6.32123 5.99512H4.74874C4.54118 5.99512 4.35459 6.11104 4.26968 6.29189L1.0796 13.1335V12.49C1.0796 12.2143 0.844764 11.9904 0.555427 11.9904C0.26609 11.9904 0.03125 12.2143 0.03125 12.4901V15.4877C0.03125 15.7235 0.204223 15.9274 0.446385 15.9763C0.483093 15.9843 0.519751 15.9873 0.555427 15.9873C0.758818 15.9873 0.948547 15.8734 1.03449 15.6906L5.08943 6.99432H6.32123C6.61056 6.99432 6.8454 6.77048 6.8454 6.4947C6.8454 6.21891 6.61056 5.99512 6.32123 5.99512Z" fill="#2281D6"/>
<path d="M13.1373 0H6.84735C5.40278 0 4.22656 1.12112 4.22656 2.49803V6.49489C4.22656 6.77068 4.4614 6.99452 4.75074 6.99452C5.04008 6.99452 5.27492 6.77068 5.27492 6.49489V2.49803C5.27492 1.67166 5.98042 0.999204 6.8474 0.999204H13.1373C14.0043 0.999204 14.7098 1.67166 14.7098 2.49803V5.99532H13.6615C13.3721 5.99532 13.1373 6.21916 13.1373 6.49494C13.1373 6.77073 13.3721 6.99457 13.6615 6.99457H15.2339C15.5233 6.99457 15.7581 6.77073 15.7581 6.49494V2.49803C15.7581 1.12112 14.5819 0 13.1373 0Z" fill="#2281D6"/>
<path fill-rule="evenodd" clip-rule="evenodd" d="M13.7703 5.31004L14.0324 7.3085C14.088 7.73515 13.9496 8.16382 13.6509 8.48658C13.3531 8.80831 12.9233 8.99318 12.4725 8.99318H7.50978C7.05902 8.99318 6.62919 8.80831 6.33042 8.48658C6.03268 8.16382 5.89327 7.73515 5.94988 7.3085L6.21194 5.31004C6.30943 4.56161 6.98034 3.99707 7.77184 3.99707H12.2104C13.0019 3.99707 13.6728 4.56161 13.7703 5.31004ZM12.4725 7.99393C12.6256 7.99393 12.765 7.93398 12.8656 7.82508C12.9662 7.71618 13.0114 7.57627 12.9924 7.43239L12.7303 5.43393C12.6978 5.18414 12.4745 4.99627 12.2104 4.99627H7.77179C7.50762 4.99627 7.28432 5.18414 7.25184 5.43393L6.98978 7.43239C6.97091 7.57726 7.01597 7.71618 7.11661 7.82508C7.21725 7.93398 7.35666 7.99393 7.50973 7.99393H12.4725Z" fill="#2281D6"/>
</svg>
