<svg width="20" height="20" viewBox="0 0 20 20" fill="none" xmlns="http://www.w3.org/2000/svg">
<path fill-rule="evenodd" clip-rule="evenodd" d="M5.80036 0H14.197C15.0064 0 15.6654 0.659 15.6654 1.46833V18.5317C15.6654 19.341 15.0064 20 14.1967 20H5.80036C4.99103 20 4.33203 19.341 4.33203 18.5313V1.46833C4.33203 0.659 4.99103 0 5.80036 0ZM14.9987 2.66667H4.9987V15.3333H14.9987V2.66667ZM5.80036 0.666667H14.1967C14.639 0.666667 14.9987 1.02633 14.9987 1.46833V2H4.9987V1.46833C4.9987 1.02633 5.35836 0.666667 5.80036 0.666667ZM5.80036 19.3333H14.197C14.639 19.3333 14.9987 18.9737 14.9987 18.5317V16H4.9987V18.5317C4.9987 18.9737 5.35836 19.3333 5.80036 19.3333Z" fill="#2281D6"/>
<path fill-rule="evenodd" clip-rule="evenodd" d="M8.66797 17.6663C8.66797 16.931 9.26597 16.333 10.0013 16.333C10.7366 16.333 11.3346 16.931 11.3346 17.6663C11.3346 18.4017 10.7366 18.9997 10.0013 18.9997C9.26597 18.9997 8.66797 18.4017 8.66797 17.6663ZM9.33464 17.6663C9.33464 18.034 9.63364 18.333 10.0013 18.333C10.369 18.333 10.668 18.034 10.668 17.6663C10.668 17.2987 10.369 16.9997 10.0013 16.9997C9.63364 16.9997 9.33464 17.2987 9.33464 17.6663Z" fill="#2281D6"/>
<path d="M8.66536 1.66667H9.9987C10.183 1.66667 10.332 1.51767 10.332 1.33333C10.332 1.149 10.183 1 9.9987 1H8.66536C8.48103 1 8.33203 1.149 8.33203 1.33333C8.33203 1.51767 8.48103 1.66667 8.66536 1.66667Z" fill="#2281D6"/>
<path d="M11.0013 1.66667H11.3346C11.519 1.66667 11.668 1.51767 11.668 1.33333C11.668 1.149 11.519 1 11.3346 1H11.0013C10.817 1 10.668 1.149 10.668 1.33333C10.668 1.51767 10.817 1.66667 11.0013 1.66667Z" fill="#2281D6"/>
<path d="M18.8699 1.52255C18.7395 1.39222 18.5289 1.39222 18.3985 1.52255C18.2682 1.65289 18.2682 1.86355 18.3985 1.99389C19.6439 3.23922 19.6439 5.26555 18.3985 6.51122C18.2682 6.64155 18.2682 6.85222 18.3985 6.98255C18.4635 7.04755 18.5489 7.08022 18.6342 7.08022C18.7195 7.08022 18.8049 7.04755 18.8699 6.98255C20.3752 5.47755 20.3752 3.02789 18.8699 1.52255Z" fill="#2281D6"/>
<path d="M17.4675 2.28134C17.3372 2.15101 17.1265 2.15101 16.9962 2.28134C16.8659 2.41168 16.8659 2.62234 16.9962 2.75268C17.4085 3.16501 17.6355 3.71434 17.6355 4.29901C17.6355 4.88368 17.4085 5.43268 16.9962 5.84501C16.8659 5.97534 16.8659 6.18601 16.9962 6.31634C17.0612 6.38134 17.1465 6.41401 17.2319 6.41401C17.3172 6.41401 17.4025 6.38134 17.4675 6.31634C18.0059 5.77834 18.3022 5.06168 18.3022 4.29901C18.3022 3.53634 18.0062 2.81934 17.4675 2.28134Z" fill="#2281D6"/>
<path d="M1.60033 1.99389C1.73067 1.86355 1.73067 1.65289 1.60033 1.52255C1.47 1.39222 1.25933 1.39222 1.129 1.52255C-0.376333 3.02789 -0.376333 5.47722 1.129 6.98255C1.194 7.04755 1.27933 7.08022 1.36467 7.08022C1.45 7.08022 1.53533 7.04755 1.60033 6.98255C1.73067 6.85222 1.73067 6.64155 1.60033 6.51122C0.354667 5.26589 0.354667 3.23955 1.60033 1.99389Z" fill="#2281D6"/>
<path d="M3.00522 2.18955C2.87489 2.05921 2.66422 2.05921 2.53389 2.18955C1.99555 2.72755 1.69922 3.44421 1.69922 4.20688C1.69922 4.96955 1.99555 5.68621 2.53389 6.22455C2.59889 6.28955 2.68422 6.32221 2.76955 6.32221C2.85489 6.32221 2.94022 6.28955 3.00522 6.22455C3.13555 6.09421 3.13555 5.88355 3.00522 5.75321C2.59289 5.34088 2.36589 4.79155 2.36589 4.20688C2.36589 3.62221 2.59255 3.07321 3.00522 2.66088C3.13522 2.53088 3.13522 2.31988 3.00522 2.18955Z" fill="#2281D6"/>
</svg>
