<svg width="34" height="32" viewBox="0 0 34 32" fill="none" xmlns="http://www.w3.org/2000/svg">
<rect y="8.50195" width="34" height="1.1284" fill="#2281D6"/>
<path d="M19.2672 0.0390625C17.3921 0.0390625 15.8672 1.55728 15.8672 3.42419V18.6572H17.0005V3.42419C17.0005 2.17956 18.0172 1.16746 19.2672 1.16746C20.5173 1.16746 21.5338 2.17962 21.5338 3.42419V9.52872H22.6672V3.42425C22.6672 1.55734 21.1423 0.0390625 19.2672 0.0390625Z" fill="#2281D6"/>
<rect x="16.4336" y="11.8867" width="9.06664" height="1.1284" fill="#2281D6"/>
<path d="M28.3336 0.0390625C26.4585 0.0390625 24.9336 1.55728 24.9336 3.42419V18.6572H26.0669V3.42419C26.0669 2.17956 27.0836 1.16746 28.3336 1.16746C29.5836 1.16746 30.6002 2.17962 30.6002 3.42425V9.52878H31.7336V3.42425C31.7336 1.55734 30.2087 0.0390625 28.3336 0.0390625Z" fill="#2281D6"/>
<rect x="16.4336" y="15.2715" width="9.06664" height="1.1284" fill="#2281D6"/>
<path d="M29.4395 30.3382C28.5652 30.9994 27.3452 30.9988 26.4719 30.3387C25.1947 29.3688 23.4113 29.3694 22.1363 30.3382C21.2614 30.9994 20.0413 30.9994 19.1676 30.3387C17.8908 29.3694 16.1076 29.3688 14.832 30.3382C13.9582 30.9994 12.7376 30.9994 11.8637 30.3387C10.587 29.3694 8.80374 29.3688 7.52814 30.3382C6.65437 30.9994 5.43316 30.9994 4.55938 30.3387C3.28266 29.3694 1.49938 29.3683 0.222656 30.3387L0.910027 31.2357C1.78214 30.5745 3.00043 30.5739 3.87314 31.2363C5.15153 32.2028 6.93653 32.2034 8.21491 31.2357C9.08703 30.5734 10.3048 30.5739 11.178 31.2363C12.4559 32.2039 14.2403 32.2034 15.5193 31.2357C16.3914 30.5734 17.6091 30.5739 18.4824 31.2363C19.7596 32.2028 21.5441 32.2034 22.8236 31.2357C23.6957 30.5734 24.9129 30.5734 25.7867 31.2363C26.426 31.7198 27.191 31.9613 27.9571 31.9613C28.7232 31.9613 29.4888 31.7198 30.1257 31.2357C30.9978 30.5734 32.2156 30.5728 33.0882 31.2357L33.7756 30.3387C32.4984 29.3688 30.7157 29.3694 29.4395 30.3382Z" fill="#2281D6"/>
<path d="M29.4395 26.388C28.5652 27.0492 27.3452 27.0486 26.4719 26.3885C25.1947 25.4187 23.4113 25.4193 22.1363 26.388C21.2614 27.0492 20.0413 27.0492 19.1676 26.3885C17.8908 25.4187 16.1076 25.4193 14.832 26.388C13.9582 27.0492 12.7376 27.0492 11.8637 26.3885C10.587 25.4187 8.80374 25.4193 7.52814 26.388C6.65437 27.0492 5.43316 27.0492 4.55938 26.3885C3.28266 25.4187 1.49938 25.4187 0.222656 26.3885L0.910027 27.2856C1.78214 26.6244 3.00043 26.6238 3.87314 27.2862C5.15153 28.2527 6.93653 28.2532 8.21491 27.2856C9.08703 26.6232 10.3048 26.6238 11.178 27.2862C12.4559 28.2538 14.2403 28.2532 15.5193 27.2856C16.3914 26.6232 17.6091 26.6238 18.4824 27.2862C19.7596 28.2527 21.5441 28.2532 22.8236 27.2856C23.6957 26.6232 24.9129 26.6232 25.7867 27.2862C26.426 27.7697 27.191 28.0111 27.9571 28.0111C28.7232 28.0111 29.4888 27.7697 30.1257 27.2856C30.9978 26.6232 32.2156 26.6226 33.0882 27.2856L33.7756 26.3885C32.4984 25.4187 30.7157 25.4193 29.4395 26.388Z" fill="#2281D6"/>
<path d="M29.4395 22.4388C28.5652 23.1 27.3452 23.0994 26.4719 22.4393C25.1947 21.4695 23.4113 21.47 22.1363 22.4388C21.2614 23.1 20.0413 23.1 19.1676 22.4393C17.8908 21.4695 16.1076 21.47 14.832 22.4388C13.9582 23.1 12.7376 23.1 11.8637 22.4393C10.587 21.4695 8.80374 21.47 7.52814 22.4388C6.65437 23.1 5.43316 23.1 4.55938 22.4393C3.28266 21.4695 1.49938 21.4695 0.222656 22.4393L0.910027 23.3364C1.78214 22.6751 3.00043 22.6745 3.87314 23.3369C5.15153 24.3039 6.93653 24.3034 8.21491 23.3364C9.08703 22.674 10.3048 22.6745 11.178 23.3369C12.4559 24.3045 14.2403 24.3039 15.5193 23.3364C16.3914 22.674 17.6091 22.6745 18.4824 23.3369C19.7596 24.3034 21.5441 24.3039 22.8236 23.3364C23.6957 22.674 24.9129 22.674 25.7867 23.3369C26.426 23.8204 27.191 24.0618 27.9571 24.0618C28.7232 24.0618 29.4888 23.8204 30.1257 23.3363C30.9978 22.6739 32.2156 22.6734 33.0882 23.3363L33.7756 22.4392C32.4984 21.4695 30.7157 21.47 29.4395 22.4388Z" fill="#2281D6"/>
<path d="M29.4395 18.4895C28.5652 19.1508 27.3452 19.1502 26.4719 18.4901C25.1947 17.5202 23.4113 17.5208 22.1363 18.4895C21.2614 19.1502 20.0413 19.1508 19.1676 18.4901C17.8908 17.5208 16.1076 17.5202 14.832 18.4895C13.9582 19.1513 12.7376 19.1508 11.8637 18.4901C10.587 17.5208 8.80374 17.5202 7.52814 18.4895C6.65437 19.1513 5.43316 19.1508 4.55938 18.4901C3.28266 17.5208 1.49938 17.5197 0.222656 18.4901L0.910027 19.3871C1.78214 18.7259 3.00043 18.7253 3.87314 19.3876C5.15153 20.3541 6.93653 20.3547 8.21491 19.3871C9.08703 18.7248 10.3048 18.7253 11.178 19.3876C12.4559 20.3552 14.2403 20.3547 15.5193 19.3871C16.3914 18.7248 17.6091 18.7253 18.4824 19.3876C19.7596 20.3541 21.5441 20.3547 22.8236 19.3871C23.6957 18.7248 24.9129 18.7248 25.7867 19.3876C26.426 19.8712 27.191 20.1126 27.9571 20.1126C28.7232 20.1126 29.4888 19.8712 30.1257 19.3871C30.9978 18.7247 32.2156 18.7241 33.0882 19.3871L33.7756 18.49C32.4984 17.5202 30.7157 17.5208 29.4395 18.4895Z" fill="#2281D6"/>
</svg>
