<svg width="23" height="18" viewBox="0 0 23 18" fill="none" xmlns="http://www.w3.org/2000/svg">
<path fill-rule="evenodd" clip-rule="evenodd" d="M0.383333 0.0244141H22.6167C22.8284 0.0244141 23 0.199147 23 0.414658V14.4634C23 14.6789 22.8284 14.8537 22.6167 14.8537H19.895L22.3101 17.3095C22.4596 17.4621 22.4594 17.7094 22.3095 17.8619C22.1594 18.0143 21.9164 18.0139 21.7669 17.8613L18.8125 14.8537H18.7541L15.7986 17.8613C15.7024 17.9627 15.56 18.0035 15.426 17.9676C15.292 17.932 15.1872 17.8255 15.1521 17.689C15.117 17.5526 15.157 17.4074 15.2566 17.3095L17.6717 14.8537H5.3283L7.74341 17.3095C7.89296 17.4621 7.89277 17.7094 7.74285 17.8619C7.59273 18.0143 7.34978 18.0139 7.20023 17.8613L4.24587 14.8537H4.18747L1.23198 17.8613C1.13577 17.9627 0.993335 18.0035 0.859318 17.9676C0.725301 17.932 0.620483 17.8255 0.585482 17.689C0.550293 17.5526 0.590348 17.4074 0.689925 17.3095L3.10504 14.8537H0.383333C0.171639 14.8537 0 14.6789 0 14.4634V0.414658C0 0.199147 0.171639 0.0244141 0.383333 0.0244141ZM0.766667 14.0732H22.2333V0.804902H0.766667V14.0732Z" fill="#2281D6"/>
<path d="M14.5907 10.3079C14.6468 10.4603 14.7898 10.5613 14.9497 10.5613C15.1095 10.5613 15.2525 10.4603 15.3087 10.3079L17.6087 4.06399C17.6774 3.86353 17.5763 3.64402 17.3809 3.56971C17.1857 3.49539 16.9678 3.59372 16.8907 3.79074L14.9499 9.05904L13.0091 3.79074C12.9319 3.59372 12.7141 3.49539 12.5188 3.56971C12.3234 3.64402 12.2224 3.86353 12.291 4.06399L14.5907 10.3079Z" fill="#2281D6"/>
<path d="M5.75052 4.31662H7.66719V10.1703C7.66719 10.3858 7.83883 10.5605 8.05052 10.5605C8.26222 10.5605 8.43385 10.3858 8.43385 10.1703V4.31662H10.3505C10.5622 4.31662 10.7339 4.14189 10.7339 3.92638C10.7339 3.71087 10.5622 3.53613 10.3505 3.53613H5.75052C5.53883 3.53613 5.36719 3.71087 5.36719 3.92638C5.36719 4.14189 5.53883 4.31662 5.75052 4.31662Z" fill="#2281D6"/>
</svg>
