<svg width="36" height="32" viewBox="0 0 36 32" fill="none" xmlns="http://www.w3.org/2000/svg">
<path fill-rule="evenodd" clip-rule="evenodd" d="M34.7698 17.5122C36.5832 15.7112 36.0228 12.0683 32.8818 12.0683L24.6173 12.0738C24.9312 10.3279 25.3858 7.4336 25.3678 7.16033C25.1942 4.57224 23.5405 1.42243 23.469 1.29351C23.1674 0.733164 21.6445 -0.0265484 20.112 0.298977C18.1306 0.722113 17.9282 1.98301 17.9363 2.33063C17.9363 2.33063 18.0217 5.77995 18.03 6.70036C17.0827 8.77598 13.8164 14.2307 12.8264 14.6511C12.5896 14.5081 12.321 14.4312 12.0415 14.4312H1.60015C0.713308 14.4312 0 15.1467 0 16.0273L0.00138462 30.4234C0.0634615 31.1995 0.724385 31.8082 1.50508 31.8082H10.8835C11.7152 31.8082 12.3914 31.1336 12.3914 30.3039V29.826C12.3914 29.826 12.7398 29.8 12.8982 29.9015L12.9231 29.9173C13.5217 30.2966 14.2597 30.7641 15.2183 30.7641H29.2138C34.4462 30.7641 33.8845 26.1308 33.4066 25.4989C34.2907 24.5386 34.8374 22.8449 34.0911 21.5069C34.6638 20.9012 35.6718 19.2363 34.7698 17.5122ZM10.5614 30.3012H1.50231V15.9339H10.5614V30.3012ZM32.2431 17.7443L32.3285 17.3886C34.6004 17.0329 35.0631 13.5794 32.6384 13.5767H22.7695C23.1482 12.0683 23.8532 7.26047 23.8532 7.26047C23.6935 4.92655 22.128 1.99797 22.128 1.99797C20.2678 1.21639 19.4347 2.28781 19.4347 2.28781C19.4347 2.28781 19.5284 5.99659 19.5284 6.85391C19.5284 7.71124 15.279 14.5615 14.2408 15.4449C13.6913 15.9106 12.7027 16.5561 11.8985 17.0534V28.1125H12.5437C12.8851 28.1125 13.264 28.3561 13.672 28.6183C14.1477 28.9241 14.6629 29.2553 15.204 29.2553L29.4392 29.2498C32.2994 29.2498 32.7565 26.0355 30.8686 25.7263L30.954 25.372C32.7648 25.177 33.8677 22.3226 31.5558 21.736L31.6412 21.3803C33.3708 21.2005 34.6542 18.4282 32.2431 17.7443Z" fill="#2281D6"/>
</svg>
