<svg width="18" height="20" viewBox="0 0 18 20" fill="none" xmlns="http://www.w3.org/2000/svg">
<path fill-rule="evenodd" clip-rule="evenodd" d="M1.03597 0H16.9209C17.493 0 17.9568 0.447754 17.9568 1V17.6667C17.955 18.0889 17.6786 18.4645 17.2662 18.6053V19.6667C17.2662 19.8507 17.1116 20 16.9209 20H1.03597C0.845267 20 0.690647 19.8507 0.690647 19.6667V18.6053C0.278215 18.4645 0.00185478 18.0889 0 17.6667V1C0 0.447754 0.46386 0 1.03597 0ZM17.2662 13.3333V1C17.2662 0.815918 17.1116 0.666667 16.9209 0.666667H8.97842V13.3333H17.2662ZM8.28777 18H4.83453V0.666667H8.28777V18ZM1.03597 0.666667C0.845268 0.666667 0.690647 0.815918 0.690647 1V17.6667C0.690647 17.8507 0.845268 18 1.03597 18H4.14388V0.666667H1.03597ZM16.5755 19.3333H1.38129V18.6667H16.5755V19.3333ZM16.9209 18C17.1116 18 17.2662 17.8507 17.2662 17.6667V14H8.97842V18H16.9209Z" fill="#2281D6"/>
<path d="M1.53271 2.83351C1.62427 2.83351 1.71212 2.79835 1.77687 2.73585L2.75349 1.79282C2.84319 1.70916 2.87927 1.58513 2.84757 1.4686C2.81604 1.35206 2.72179 1.26108 2.60106 1.23064C2.48033 1.20004 2.35185 1.23487 2.26518 1.32146L1.28856 2.26449C1.18992 2.35987 1.16041 2.50326 1.21369 2.62778C1.26714 2.75229 1.3931 2.83351 1.53271 2.83351Z" fill="#2281D6"/>
<path d="M2.02292 3.44255C2.15781 3.5726 2.37633 3.5726 2.51123 3.44255L3.48818 2.49985C3.57789 2.41619 3.61397 2.29216 3.58227 2.17563C3.55074 2.05909 3.45648 1.96811 3.33575 1.93767C3.21503 1.90707 3.08654 1.9419 2.99987 2.02849L2.02292 2.9712C1.88819 3.10141 1.88819 3.31235 2.02292 3.44255Z" fill="#2281D6"/>
<path d="M7.61876 9.33301C7.80946 9.33301 7.96408 9.18376 7.96408 8.99967V7.66634C7.96408 7.48226 7.80946 7.33301 7.61876 7.33301C7.42806 7.33301 7.27344 7.48226 7.27344 7.66634V8.99967C7.27344 9.18376 7.42806 9.33301 7.61876 9.33301Z" fill="#2281D6"/>
<path d="M9.68907 9.33301C9.87978 9.33301 10.0344 9.18376 10.0344 8.99967V7.66634C10.0344 7.48226 9.87978 7.33301 9.68907 7.33301C9.49837 7.33301 9.34375 7.48226 9.34375 7.66634V8.99967C9.34375 9.18376 9.49837 9.33301 9.68907 9.33301Z" fill="#2281D6"/>
<path d="M12.4547 14.9997H13.836C14.0267 14.9997 14.1813 14.8504 14.1813 14.6663C14.1813 14.4823 14.0267 14.333 13.836 14.333H12.4547C12.264 14.333 12.1094 14.4823 12.1094 14.6663C12.1094 14.8504 12.264 14.9997 12.4547 14.9997Z" fill="#2281D6"/>
</svg>
