<svg width="25" height="18" viewBox="0 0 25 18" fill="none" xmlns="http://www.w3.org/2000/svg">
<path d="M24.8251 5.32219C21.5328 2.14189 17.1478 0.390625 12.4792 0.390625C7.81057 0.390625 3.42602 2.14145 0.133295 5.32219C-0.0444318 5.49384 -0.0444318 5.77131 0.133295 5.94297C0.311023 6.11462 0.598295 6.11462 0.776023 5.94297C3.89693 2.92819 8.0533 1.26823 12.4792 1.26823C16.9051 1.26823 21.0615 2.92819 24.1824 5.94253C24.271 6.02814 24.3874 6.07116 24.5037 6.07116C24.6201 6.07116 24.7365 6.02814 24.8251 5.94253C25.0028 5.77131 25.0028 5.49341 24.8251 5.32219Z" fill="#2281D6"/>
<path d="M2.80517 7.90205C2.62744 8.07371 2.62744 8.35117 2.80517 8.52283C2.89381 8.60844 3.01017 8.65146 3.12653 8.65146C3.2429 8.65146 3.35926 8.60844 3.4479 8.52283C8.42744 3.71288 16.5302 3.71288 21.5102 8.52283C21.6879 8.69449 21.9752 8.69449 22.1529 8.52283C22.3306 8.35117 22.3306 8.07371 22.1529 7.90205C16.8193 2.75054 8.13972 2.74966 2.80517 7.90205Z" fill="#2281D6"/>
<path d="M12.4789 7.68652C9.83114 7.68652 7.34477 8.68004 5.47705 10.4835C5.29932 10.6552 5.29932 10.9327 5.47705 11.1043C5.65477 11.276 5.94205 11.276 6.11977 11.1043C7.81568 9.46677 10.0739 8.56457 12.4789 8.56457C14.8839 8.56457 17.142 9.46677 18.838 11.1043C18.9266 11.1899 19.043 11.233 19.1593 11.233C19.2757 11.233 19.392 11.1899 19.4807 11.1043C19.6584 10.9327 19.6584 10.6552 19.4807 10.4835C17.6134 8.68004 15.1266 7.68652 12.4789 7.68652Z" fill="#2281D6"/>
<path fill-rule="evenodd" clip-rule="evenodd" d="M9.5 14.6929C9.5 13.1067 10.8359 11.8164 12.4777 11.8164C14.12 11.8164 15.4559 13.1067 15.4559 14.6929C15.4559 16.2791 14.12 17.5694 12.4777 17.5694C10.8359 17.5694 9.5 16.2791 9.5 14.6929ZM10.4091 14.6925C10.4091 15.7944 11.3368 16.6909 12.4777 16.6909C13.6186 16.6909 14.5468 15.7944 14.5468 14.6925C14.5468 13.5905 13.6182 12.694 12.4777 12.694C11.3373 12.694 10.4091 13.5905 10.4091 14.6925Z" fill="#2281D6"/>
</svg>
