<svg width="32" height="32" viewBox="0 0 32 32" fill="none" xmlns="http://www.w3.org/2000/svg">
<path d="M15.1087 16.0404C14.8648 16.2835 14.8648 16.6785 15.1087 16.9224C15.3526 17.1663 15.7474 17.1663 15.9908 16.9224C16.2347 16.6785 16.2347 16.2835 15.9908 16.0404C15.7474 15.7964 15.3526 15.7964 15.1087 16.0404Z" fill="#2281D6"/>
<path fill-rule="evenodd" clip-rule="evenodd" d="M25.028 1.85602C24.3288 2.39729 23.9619 2.76725 22.7337 4.00565L22.7335 4.00581C22.0813 4.66342 21.1862 5.56591 19.8696 6.86893L2.72533 4.07775C2.05866 3.96957 1.37664 4.19008 0.899549 4.66718C-0.0178481 5.58458 0.106664 7.10236 1.1532 7.85967L11.4337 15.3046L9.50896 17.2296C8.84935 17.8892 8.15515 18.7963 7.4417 19.9291L2.64736 18.5193C1.93975 18.3114 1.17562 18.5061 0.652961 19.0278C-0.236903 19.9177 -0.1024 21.3955 0.931226 22.1114L4.86154 24.8321C4.18159 26.3327 3.76658 27.4204 3.74255 27.4834L3.74214 27.4844C3.65491 27.714 3.71071 27.9735 3.8842 28.147C4.05866 28.3214 4.31841 28.3758 4.54672 28.289C4.59716 28.27 5.68902 27.8538 7.19901 27.1696L9.92002 31.1002C10.6371 32.1355 12.1149 32.2666 13.0038 31.3777C13.5253 30.8555 13.72 30.0914 13.5119 29.3838L12.1023 24.5897C13.2358 23.8758 14.1425 23.1816 14.8018 22.5224L16.7268 20.5975L24.1715 30.8779C24.93 31.9262 26.4478 32.048 27.3642 31.1316C27.8411 30.6548 28.0616 29.9722 27.9536 29.3053L25.1625 12.1618C26.4687 10.8419 27.372 9.94609 28.0294 9.29413L28.0294 9.2941C29.2647 8.06898 29.6318 7.70499 30.1729 7.00636C32.1001 4.5088 32.5504 1.99052 31.2957 0.735405C30.0409 -0.518737 27.5224 -0.0689319 25.028 1.85602ZM1.88469 6.84895C1.45779 6.54023 1.40881 5.92205 1.78186 5.54925C1.97606 5.3548 2.25433 5.26489 2.52528 5.30899L18.7826 7.95592L12.3272 14.4111L1.88469 6.84895ZM2.2955 19.7162C2.02577 19.6367 1.73434 19.7113 1.53503 19.9104C1.19585 20.2493 1.2475 20.8129 1.64151 21.0858L5.39687 23.6855C5.85837 22.7252 6.32109 21.838 6.77967 21.0349L2.2955 19.7162ZM12.1213 30.4961C11.785 30.8324 11.2207 30.7871 10.9456 30.3899L8.34594 26.6343C9.30696 26.1723 10.1944 25.7093 10.9965 25.2517L12.315 29.7356C12.3944 30.0056 12.3201 30.2971 12.1213 30.4961ZM26.4822 30.2495C26.6764 30.0553 26.7663 29.7771 26.7222 29.5054L24.0755 13.2488L17.6201 19.7042L25.1822 30.1465C25.4924 30.5753 26.111 30.6206 26.4822 30.2495ZM13.9198 21.6401C13.2334 22.3268 12.2287 23.068 10.9339 23.8436C9.25067 24.8516 7.25871 25.8063 5.46193 26.5695C6.2458 24.724 7.21851 22.6998 8.24823 20.9973C9.0014 19.7512 9.72241 18.7802 10.3913 18.1116C16.3674 12.1498 19.8609 8.64682 21.9555 6.54644C24.6932 3.80124 25.0415 3.452 25.4207 3.14028C25.4759 3.09485 25.5318 3.05022 25.5959 2.99908C25.6134 2.98507 25.6316 2.97057 25.6505 2.95543C26.6764 2.88989 27.5794 3.19447 28.208 3.82312C28.8367 4.45178 29.1415 5.35504 29.076 6.38063C29.0613 6.39892 29.0473 6.41651 29.0337 6.43352C28.982 6.49833 28.9368 6.55485 28.8909 6.61071C28.5778 6.99149 28.227 7.34131 25.4844 10.0764C23.3843 12.1708 19.8817 15.6637 13.9198 21.6401ZM27.2901 1.88794C27.9775 2.08726 28.5906 2.44155 29.0903 2.94106C29.5901 3.44081 29.9441 4.05387 30.1435 4.7415C30.8294 3.38891 30.9668 2.17083 30.4137 1.61747C29.7131 0.917423 28.1929 1.43009 27.2901 1.88794Z" fill="#2281D6"/>
<path d="M18.6383 12.5109L16.8742 14.2748C16.6305 14.5184 16.6305 14.9134 16.8742 15.1571C17.1178 15.4007 17.5126 15.4005 17.7565 15.1571L19.5204 13.3929C19.764 13.1495 19.764 12.7545 19.5204 12.5109C19.2767 12.2672 18.882 12.2672 18.6383 12.5109Z" fill="#2281D6"/>
<path d="M22.1662 8.98255L20.4013 10.7472C20.1579 10.9908 20.1579 11.3858 20.4013 11.6295C20.6452 11.8729 21.04 11.8729 21.2836 11.6295L23.0482 9.86486C23.2919 9.6212 23.2919 9.22622 23.0482 8.98255C22.8046 8.73889 22.4098 8.73889 22.1662 8.98255Z" fill="#2281D6"/>
</svg>
