<svg width="24" height="18" viewBox="0 0 24 18" fill="none" xmlns="http://www.w3.org/2000/svg">
<path fill-rule="evenodd" clip-rule="evenodd" d="M22.8 0.0253906H1.2C0.537305 0.0253906 0 0.57335 0 1.24919V7.7761C0 8.45193 0.537305 8.9999 1.2 8.9999H22.8C23.4627 8.9999 24 8.45193 24 7.7761V1.24919C24 0.57335 23.4627 0.0253906 22.8 0.0253906ZM1.2 0.841255H22.8C23.0209 0.841255 23.2 1.02391 23.2 1.24919V6.5523H0.8V1.24919C0.8 1.02391 0.979102 0.841255 1.2 0.841255ZM1.2 8.18403H22.8C23.0209 8.18403 23.2 8.00138 23.2 7.7761V7.36817H0.8V7.7761C0.8 8.00138 0.979102 8.18403 1.2 8.18403Z" fill="#2281D6"/>
<path d="M12.6565 11.0398C12.6565 10.8145 12.4774 10.6318 12.2565 10.6318C12.0356 10.6318 11.8565 10.8145 11.8565 11.0398C11.8657 11.3575 11.7909 11.672 11.6401 11.9502C11.2461 12.7454 11.2461 13.6844 11.6401 14.4795C11.9285 15.0516 11.9285 15.7308 11.6401 16.3028C11.4367 16.6913 11.3348 17.1265 11.3444 17.5667C11.3444 17.792 11.5235 17.9746 11.7444 17.9746C11.9653 17.9746 12.1444 17.792 12.1444 17.5667C12.1352 17.2486 12.21 16.9339 12.3608 16.6554C12.7545 15.8601 12.7545 14.9215 12.3608 14.1261C12.0723 13.5543 12.0723 12.8755 12.3608 12.3036C12.5643 11.9152 12.6662 11.48 12.6565 11.0398Z" fill="#2281D6"/>
<path d="M6.25413 11.0398C6.25413 10.8145 6.07503 10.6318 5.85413 10.6318C5.63323 10.6318 5.45413 10.8145 5.45413 11.0398C5.46331 11.3575 5.38851 11.672 5.23773 11.9502C4.84378 12.7454 4.84378 13.6844 5.23773 14.4795C5.5262 15.0516 5.5262 15.7308 5.23773 16.3028C5.03441 16.6913 4.93245 17.1265 4.94202 17.5667C4.94202 17.792 5.12112 17.9746 5.34202 17.9746C5.56292 17.9746 5.74202 17.792 5.74202 17.5667C5.73284 17.2486 5.80765 16.9339 5.95843 16.6554C6.35218 15.8601 6.35218 14.9215 5.95843 14.1261C5.66995 13.5543 5.66995 12.8755 5.95843 12.3036C6.16194 11.9152 6.2639 11.48 6.25413 11.0398Z" fill="#2281D6"/>
<path d="M19.0549 11.0398C19.0549 10.8145 18.8758 10.6318 18.6549 10.6318C18.434 10.6318 18.2549 10.8145 18.2549 11.0398C18.2641 11.3575 18.1893 11.672 18.0385 11.9502C17.6446 12.7454 17.6446 13.6844 18.0385 14.4795C18.327 15.0516 18.327 15.7308 18.0385 16.3028C17.8352 16.6913 17.7332 17.1265 17.7428 17.5667C17.7428 17.792 17.9219 17.9746 18.1428 17.9746C18.3637 17.9746 18.5428 17.792 18.5428 17.5667C18.5336 17.2486 18.6084 16.9339 18.7592 16.6554C19.153 15.8601 19.153 14.9215 18.7592 14.1261C18.4707 13.5543 18.4707 12.8755 18.7592 12.3036C18.9627 11.9152 19.0647 11.48 19.0549 11.0398Z" fill="#2281D6"/>
<path fill-rule="evenodd" clip-rule="evenodd" d="M22.0008 6.14486H17.2008C16.9799 6.14486 16.8008 5.9622 16.8008 5.73693V4.1052C16.8008 3.87992 16.9799 3.69727 17.2008 3.69727H22.0008C22.2217 3.69727 22.4008 3.87992 22.4008 4.1052V5.73693C22.4008 5.9622 22.2217 6.14486 22.0008 6.14486ZM21.6008 4.51313H17.6008V5.32899H21.6008V4.51313Z" fill="#2281D6"/>
</svg>
