<svg width="28" height="32" viewBox="0 0 28 32" fill="none" xmlns="http://www.w3.org/2000/svg">
<path fill-rule="evenodd" clip-rule="evenodd" d="M14.0002 2.13184C15.1868 2.13184 16.1489 3.08704 16.1489 4.26517C16.1489 5.44355 15.1868 6.3985 14.0002 6.3985C12.8136 6.3985 11.8516 5.44355 11.8516 4.26517C11.8516 3.08704 12.8136 2.13184 14.0002 2.13184ZM12.9259 4.26517C12.9259 4.85423 13.4069 5.33184 14.0002 5.33184C14.5935 5.33184 15.0746 4.85423 15.0746 4.26517C15.0746 3.67611 14.5935 3.1985 14.0002 3.1985C13.4069 3.1985 12.9259 3.67611 12.9259 4.26517Z" fill="#2281D6"/>
<path fill-rule="evenodd" clip-rule="evenodd" d="M25.155 16.1898L27.8409 19.3898C27.9746 19.549 28.0035 19.7706 27.9148 19.9581C27.8264 20.1458 27.6363 20.2654 27.4278 20.2651H26.2278C25.4456 25.2253 21.0893 29.124 15.61 29.7714V30.3984C15.61 30.5398 15.5534 30.6755 15.4526 30.7755L14.3783 31.8422C14.1685 32.0505 13.8285 32.0505 13.6187 31.8422L12.5444 30.7755C12.4436 30.6755 12.387 30.5398 12.387 30.3984V29.7714C6.90775 29.124 2.55137 25.2253 1.76922 20.2651H0.569246C0.360463 20.2654 0.170565 20.1458 0.0819107 19.9581C-0.00648111 19.7706 0.0223708 19.549 0.156139 19.3898L2.84199 16.1898C2.94769 16.074 3.09772 16.0081 3.2551 16.0081C3.41247 16.0081 3.5625 16.074 3.6682 16.1898L6.35406 19.3898C6.48782 19.549 6.51668 19.7706 6.42802 19.9581C6.33963 20.1458 6.14947 20.2654 5.94095 20.2651H5.08746C5.88298 23.4797 8.76371 25.9602 12.387 26.5383V12.7984H7.55246C7.25581 12.7984 7.01529 12.5596 7.01529 12.2651V10.1318C7.01529 9.83724 7.25581 9.59844 7.55246 9.59844H12.387V8.22188C10.4801 7.45625 9.38744 5.45625 9.78035 3.45156C10.1733 1.44714 11.9416 0 13.9985 0C16.0554 0 17.8237 1.44714 18.2167 3.45156C18.6096 5.45625 17.5169 7.45625 15.61 8.22188V9.59844H20.4445C20.7412 9.59844 20.9817 9.83724 20.9817 10.1318V12.2651C20.9817 12.5596 20.7412 12.7984 20.4445 12.7984H15.61V26.5383C19.2333 25.9602 22.114 23.4797 22.9095 20.2651H22.0561C21.8473 20.2654 21.6574 20.1458 21.5687 19.9581C21.4803 19.7706 21.5092 19.549 21.643 19.3898L24.3288 16.1898C24.4345 16.074 24.5845 16.0081 24.7419 16.0081C24.8993 16.0081 25.0493 16.074 25.155 16.1898ZM25.2232 19.6742C25.2528 19.4036 25.4829 19.1984 25.7572 19.1984H26.2808L24.7419 17.3648L23.2028 19.1984H23.5655C23.7232 19.1982 23.8732 19.2664 23.9755 19.3857C24.0781 19.5047 24.1226 19.6625 24.0972 19.8172C23.4312 23.9841 19.7424 27.2161 15.1266 27.6784C14.975 27.6937 14.8242 27.6443 14.7114 27.5424C14.5989 27.4409 14.5349 27.2964 14.5357 27.1451V12.2651C14.5357 11.9706 14.7762 11.7318 15.0728 11.7318H19.9074V10.6651H15.0728C14.7762 10.6651 14.5357 10.4263 14.5357 10.1318V7.84375C14.5357 7.60781 14.692 7.40026 14.9197 7.33281C16.4533 6.87891 17.4188 5.3763 17.1877 3.80417C16.9566 2.23203 15.5987 1.06641 13.9985 1.06641C12.3983 1.06641 11.0404 2.23203 10.8093 3.80417C10.5782 5.3763 11.5437 6.87891 13.0773 7.33281C13.305 7.40026 13.4611 7.60781 13.4613 7.84375V10.1318C13.4613 10.4263 13.2208 10.6651 12.9242 10.6651H8.08963V11.7318H12.9257C13.2224 11.7318 13.4629 11.9706 13.4629 12.2651V27.143C13.4637 27.2943 13.3997 27.4385 13.2872 27.5404C13.1744 27.6419 13.0236 27.6914 12.872 27.6763C8.25225 27.2141 4.56524 23.982 3.90138 19.8151C3.87672 19.6609 3.92131 19.5042 4.02334 19.3854C4.12538 19.2669 4.27436 19.1987 4.43147 19.1984H4.79395L3.2551 17.3648L1.71598 19.1984H2.23977C2.51308 19.1997 2.74206 19.4044 2.7717 19.6742C3.30493 24.4992 7.59206 28.3185 12.9682 28.7557C13.2476 28.7786 13.4624 29.0109 13.4613 29.2891V30.1794L13.9985 30.7128L14.5357 30.1794V29.2909C14.5346 29.0125 14.7494 28.7802 15.0288 28.7576C20.4047 28.3201 24.6918 24.4992 25.2232 19.6742Z" fill="#2281D6"/>
</svg>
