<svg width="34" height="34" viewBox="0 0 34 34" fill="none" xmlns="http://www.w3.org/2000/svg">
<path d="M19.2466 17L11.7483 24.4983C11.1951 25.0516 11.1951 25.9485 11.7483 26.5018C12.3015 27.055 13.1985 27.055 13.7518 26.5018L22.2518 18.0018C22.805 17.4485 22.805 16.5516 22.2518 15.9983L13.7518 7.49831C13.1985 6.94506 12.3015 6.94506 11.7483 7.49831C11.1951 8.05155 11.1951 8.94853 11.7483 9.50178L19.2466 17Z" fill="black"/>
<mask id="mask0" mask-type="alpha" maskUnits="userSpaceOnUse" x="11" y="7" width="12" height="20">
<path d="M19.2466 17L11.7483 24.4983C11.1951 25.0516 11.1951 25.9485 11.7483 26.5018C12.3015 27.055 13.1985 27.055 13.7518 26.5018L22.2518 18.0018C22.805 17.4485 22.805 16.5516 22.2518 15.9983L13.7518 7.49831C13.1985 6.94506 12.3015 6.94506 11.7483 7.49831C11.1951 8.05155 11.1951 8.94853 11.7483 9.50178L19.2466 17Z" fill="white"/>
</mask>
<g mask="url(#mask0)">
<rect width="34" height="34" fill="#2281D6"/>
</g>
</svg>
