<svg width="34" height="34" viewBox="0 0 34 34" fill="none" xmlns="http://www.w3.org/2000/svg">
<path d="M14.7535 17L22.2517 24.4983C22.805 25.0515 22.805 25.9485 22.2517 26.5017C21.6985 27.055 20.8015 27.055 20.2483 26.5017L11.7483 18.0017C11.195 17.4485 11.195 16.5515 11.7483 15.9983L20.2483 7.49828C20.8015 6.94503 21.6985 6.94503 22.2517 7.49828C22.805 8.05152 22.805 8.9485 22.2517 9.50175L14.7535 17Z" fill="black"/>
<mask id="mask0" mask-type="alpha" maskUnits="userSpaceOnUse" x="11" y="7" width="12" height="20">
<path d="M14.7535 17L22.2517 24.4983C22.805 25.0515 22.805 25.9485 22.2517 26.5017C21.6985 27.055 20.8015 27.055 20.2483 26.5017L11.7483 18.0017C11.195 17.4485 11.195 16.5515 11.7483 15.9983L20.2483 7.49828C20.8015 6.94503 21.6985 6.94503 22.2517 7.49828C22.805 8.05152 22.805 8.9485 22.2517 9.50175L14.7535 17Z" fill="white"/>
</mask>
<g mask="url(#mask0)">
<rect width="34" height="34" transform="matrix(-1 0 0 1 34 0)" fill="white"/>
</g>
</svg>
