<svg width="22" height="20" viewBox="0 0 22 20" fill="none" xmlns="http://www.w3.org/2000/svg">
<path fill-rule="evenodd" clip-rule="evenodd" d="M20.5785 10.7142H20.2174V3.21632C20.2174 1.43109 18.7734 0.00292969 16.9682 0.00292969C15.3703 0.00292969 14.221 1.17473 14.0924 2.89167C13.2535 3.04849 12.6359 3.76306 12.6359 4.64448C12.6359 4.8587 12.7803 5.00151 12.9969 5.00151H15.8851C16.1018 5.00151 16.2462 4.8587 16.2462 4.64448C16.2462 3.7728 15.6423 3.06418 14.8175 2.8969C14.9254 1.76234 15.6145 0.716988 16.9682 0.716988C18.3762 0.716988 19.4954 1.82381 19.4954 3.21628V10.7142H8.62971C8.4664 9.89071 7.74641 9.28603 6.85952 9.28603C6.4985 8.85757 5.99305 8.57193 5.41543 8.57193C4.72949 8.57193 4.11573 8.96469 3.8269 9.53594C3.53807 9.39314 3.21314 9.28603 2.88822 9.28603C2.00132 9.28603 1.28133 9.89071 1.11802 10.7142H1.08308C0.469319 10.7142 0 11.1783 0 11.7853C0 12.3923 0.469319 12.8564 1.08308 12.8564H1.51694L2.49108 16.6768C2.77991 17.7836 3.79077 18.5692 4.94607 18.5692H5.2349L4.76558 19.4975C4.65727 19.676 4.72949 19.8903 4.90998 19.9616C4.94607 19.9973 5.01828 19.9973 5.05437 19.9973C5.19877 19.9973 5.30708 19.9259 5.3793 19.8188L6.01108 18.5692H16.0295L16.6433 19.7831C16.7155 19.9259 16.8238 19.9973 16.9682 19.9973C17.0404 19.9973 17.0765 19.9973 17.1126 19.9259C17.257 19.8545 17.3292 19.6403 17.257 19.4618L16.8048 18.5672C17.9225 18.528 18.8891 17.7559 19.1705 16.7125L20.1537 12.8564H20.5785C21.1922 12.8564 21.6615 12.3923 21.6615 11.7853C21.6615 11.1784 21.1922 10.7142 20.5785 10.7142ZM15.488 4.28745H13.4302C13.5745 3.859 14.0078 3.57335 14.4771 3.57335C14.9465 3.57335 15.3436 3.859 15.488 4.28745ZM3.75468 10.3929C3.50198 10.1429 3.21314 10.0001 2.88822 10.0001C2.41886 10.0001 2.02176 10.2858 1.87732 10.7142H7.90646C7.76207 10.2858 7.36492 10.0001 6.8956 10.0001H6.7873C6.64286 10.0358 6.46237 9.96439 6.39015 9.82159C6.20963 9.46456 5.84862 9.28603 5.45147 9.28603C4.90993 9.28603 4.4767 9.67879 4.3684 10.2144C4.33231 10.3572 4.26009 10.4643 4.11569 10.5C3.9713 10.5357 3.8269 10.5 3.75468 10.3929ZM18.5206 16.4983C18.304 17.2838 17.5819 17.8551 16.7516 17.8551H4.98215C4.15178 17.8551 3.42976 17.2838 3.21314 16.4983L2.27446 12.8565H19.3871L18.5206 16.4983ZM19.8564 12.1424H20.5785C20.7951 12.1424 20.9395 11.9996 20.9395 11.7854C20.9395 11.5711 20.7951 11.4283 20.5785 11.4283H8.30356H1.44409H1.08308C0.866462 11.4283 0.722065 11.5711 0.722065 11.7854C0.722065 11.9996 0.866462 12.1424 1.08308 12.1424H1.80514H19.8564Z" fill="#2281D6"/>
<path d="M12.9977 6.60841C13.2143 6.60841 13.3587 6.46561 13.3587 6.25139V6.07285C13.3587 5.85862 13.2143 5.71582 12.9977 5.71582C12.7811 5.71582 12.6367 5.85862 12.6367 6.07285V6.25139C12.6367 6.46561 12.7811 6.60841 12.9977 6.60841Z" fill="#2281D6"/>
<path d="M12.9977 8.25037C13.2143 8.25037 13.3587 8.07184 13.3587 7.89335V7.50058C13.3587 7.28636 13.2143 7.14355 12.9977 7.14355C12.7811 7.14355 12.6367 7.28636 12.6367 7.50058V7.89335C12.6367 8.10753 12.7811 8.25037 12.9977 8.25037Z" fill="#2281D6"/>
<path d="M12.9977 9.64259C13.2143 9.64259 13.3587 9.49979 13.3587 9.28556V9.10703C13.3587 8.8928 13.2143 8.75 12.9977 8.75C12.7811 8.75 12.6367 8.8928 12.6367 9.10703V9.28556C12.6367 9.49975 12.7811 9.64259 12.9977 9.64259Z" fill="#2281D6"/>
<path d="M14.4391 6.60841C14.6558 6.60841 14.8001 6.46561 14.8001 6.25139V6.07285C14.8001 5.85862 14.6558 5.71582 14.4391 5.71582C14.2225 5.71582 14.0781 5.85862 14.0781 6.07285V6.25139C14.0781 6.46561 14.2225 6.60841 14.4391 6.60841Z" fill="#2281D6"/>
<path d="M14.0781 7.89335C14.0781 8.10757 14.2225 8.25037 14.4391 8.25037C14.6558 8.25037 14.8001 8.07184 14.8001 7.89335V7.50058C14.8001 7.28636 14.6558 7.14355 14.4391 7.14355C14.2225 7.14355 14.0781 7.28636 14.0781 7.50058V7.89335Z" fill="#2281D6"/>
<path d="M14.0781 9.28556C14.0781 9.49979 14.2225 9.64259 14.4391 9.64259C14.6558 9.64259 14.8001 9.49979 14.8001 9.28556V9.10703C14.8001 8.8928 14.6558 8.75 14.4391 8.75C14.2225 8.75 14.0781 8.8928 14.0781 9.10703V9.28556Z" fill="#2281D6"/>
<path d="M15.8844 6.60841C16.1011 6.60841 16.2455 6.46561 16.2455 6.25139V6.07285C16.2455 5.85862 16.1011 5.71582 15.8844 5.71582C15.6678 5.71582 15.5234 5.85862 15.5234 6.07285V6.25139C15.5234 6.46561 15.6678 6.60841 15.8844 6.60841Z" fill="#2281D6"/>
<path d="M15.5234 7.89335C15.5234 8.10757 15.6678 8.25037 15.8844 8.25037C16.1011 8.25037 16.2455 8.07188 16.2455 7.89335V7.50058C16.2455 7.28636 16.1011 7.14355 15.8845 7.14355C15.6679 7.14355 15.5235 7.28636 15.5235 7.50058V7.89335H15.5234Z" fill="#2281D6"/>
<path d="M15.5234 9.28556C15.5234 9.49979 15.6678 9.64259 15.8844 9.64259C16.1011 9.64259 16.2455 9.49979 16.2455 9.28556V9.10703C16.2455 8.8928 16.1011 8.75 15.8844 8.75C15.6678 8.75 15.5234 8.8928 15.5234 9.10703V9.28556Z" fill="#2281D6"/>
</svg>
