<svg width="26" height="20" viewBox="0 0 26 20" fill="none" xmlns="http://www.w3.org/2000/svg">
<path fill-rule="evenodd" clip-rule="evenodd" d="M25.9244 13.4835C25.9612 13.5834 25.9471 13.6823 25.9072 13.7722C25.9331 13.8685 25.9493 13.9674 25.9494 14.0709V17.7021V19.5177C25.9494 19.7683 25.7072 19.9716 25.4087 19.9716H23.2463C22.9479 19.9716 22.7057 19.7683 22.7057 19.5177V18.156H3.24366V19.5177C3.24366 19.7683 3.00145 19.9716 2.70309 19.9716H0.540628C0.242211 19.9716 0 19.7683 0 19.5177V17.7021V14.0709C0 13.9674 0.0162183 13.8685 0.0421676 13.7722C0.00217934 13.6814 -0.0118596 13.5825 0.024885 13.4835L2.16246 7.65094V2.26949C2.16246 1.01855 3.37448 0 4.8655 0H21.0838C22.5748 0 23.7869 1.01855 23.7869 2.26949V7.65089L25.9244 13.4835ZM4.8655 0.907787C3.97131 0.907787 3.24366 1.51872 3.24366 2.26949V7.26238H4.71305L5.21688 5.57115C5.39852 4.96472 6.04614 4.53987 6.79112 4.53987H10.2716C11.1658 4.53987 11.8934 5.15081 11.8934 5.90157V7.26238H14.0559V5.90068C14.0559 5.14991 14.7835 4.53898 15.6777 4.53898H19.1581C19.9031 4.53898 20.5508 4.96294 20.7324 5.57026L21.2363 7.26238H22.7057V2.26949C22.7057 1.51872 21.978 0.907787 21.0838 0.907787H4.8655ZM20.1259 7.99587C20.0221 8.10664 19.8664 8.17017 19.6988 8.17017H15.6777C15.3803 8.17017 15.1371 7.96681 15.1371 7.71626V5.90068C15.1371 5.65013 15.3803 5.44677 15.6777 5.44677H19.1592C19.4079 5.44677 19.6231 5.58749 19.6836 5.78992L20.2242 7.60553C20.2654 7.7426 20.2297 7.88421 20.1259 7.99587ZM10.8133 7.71174V5.90068C10.8133 5.65013 10.57 5.44677 10.2727 5.44681H6.79228C6.54252 5.44681 6.32738 5.58843 6.26681 5.78996L5.72618 7.60557C5.68508 7.74174 5.72076 7.88425 5.82456 7.99591C5.92835 8.10668 6.08299 8.17021 6.25166 8.17021H10.2727C10.569 8.17021 10.8112 7.96779 10.8123 7.71813V7.7163C10.8123 7.71599 10.8123 7.71571 10.8123 7.71544C10.8124 7.71519 10.8124 7.71496 10.8125 7.71474L10.8128 7.71402L10.813 7.71353L10.8132 7.71273L10.8133 7.71174ZM3.10201 8.17017H4.72926C4.78658 8.30634 4.86119 8.43706 4.97036 8.55506C5.28175 8.88732 5.74777 9.07796 6.25054 9.07796H10.2716C10.9755 9.07796 11.5702 8.69668 11.794 8.17017H14.1554C14.3792 8.69762 14.9738 9.07796 15.6777 9.07796H19.6988C20.2015 9.07796 20.6665 8.88732 20.9778 8.55506C21.0871 8.43796 21.1617 8.30634 21.2189 8.17017H22.8473L24.5167 12.7255C24.4999 12.7238 24.4833 12.7219 24.4666 12.7199C24.4208 12.7146 24.375 12.7092 24.3275 12.7092H1.62183C1.57387 12.7092 1.52767 12.7147 1.48194 12.7201C1.46582 12.722 1.44976 12.7239 1.4337 12.7255L3.10201 8.17017ZM1.0812 19.0638H2.16241V18.156H1.0812V19.0638ZM24.8681 19.0638H23.7869V18.156H24.8681V19.0638ZM1.0812 17.2482H24.8681V14.0709C24.8681 13.8203 24.6248 13.617 24.3275 13.617H1.62183C1.32448 13.617 1.0812 13.8203 1.0812 14.0709V17.2482Z" fill="#2281D6"/>
</svg>
