<svg width="14" height="12" viewBox="0 0 14 12" fill="none" xmlns="http://www.w3.org/2000/svg">
<path fill-rule="evenodd" clip-rule="evenodd" d="M6.71144 3.37437L6.73953 3.82803L6.27138 3.77248C4.56729 3.55954 3.07856 2.83738 1.81454 1.62453L1.19657 1.02273L1.0374 1.46713C0.700327 2.45778 0.915678 3.50399 1.61791 4.20763C1.99244 4.59648 1.90817 4.65203 1.26211 4.42057C1.0374 4.3465 0.840774 4.29095 0.822047 4.31873C0.756506 4.38354 0.98122 5.22605 1.15912 5.55936C1.40256 6.02228 1.89881 6.47594 2.44187 6.74443L2.90066 6.95738L2.3576 6.96664C1.83326 6.96664 1.81454 6.97589 1.87072 7.17032C2.05798 7.77212 2.79766 8.41095 3.62162 8.6887L4.20213 8.88313L3.69652 9.1794C2.94747 9.60529 2.06734 9.84601 1.18721 9.86452C0.765869 9.87378 0.419434 9.91081 0.419434 9.93859C0.419434 10.0312 1.56173 10.5496 2.22651 10.7533C4.22086 11.3551 6.58972 11.0959 8.36871 10.0682C9.63273 9.33679 10.8968 7.88322 11.4866 6.47594C11.805 5.72601 12.1233 4.35576 12.1233 3.69841C12.1233 3.27253 12.1514 3.21697 12.6757 2.70776C12.9847 2.41149 13.275 2.08745 13.3312 1.99486C13.4248 1.81895 13.4154 1.81895 12.9379 1.97635C12.142 2.2541 12.0297 2.21706 12.4229 1.80044C12.7132 1.50417 13.0596 0.967178 13.0596 0.809785C13.0596 0.782009 12.9192 0.828301 12.76 0.911627C12.5915 1.00421 12.217 1.14309 11.9361 1.22641L11.4305 1.38381L10.9717 1.07828C10.7189 0.911627 10.3631 0.726459 10.1758 0.670908C9.69828 0.54129 8.96795 0.559807 8.53725 0.707942C7.36686 1.12457 6.62718 2.19855 6.71144 3.37437Z" fill="#2281D6"/>
</svg>
