<svg width="24" height="24" viewBox="0 0 24 24" fill="none" xmlns="http://www.w3.org/2000/svg">
<path fill-rule="evenodd" clip-rule="evenodd" d="M6 7H19C19.5523 7 20 6.55228 20 6C20 5.44772 19.5523 5 19 5H6C5.44772 5 5 5.44772 5 6C5 6.55228 5.44772 7 6 7ZM6 13H19C19.5523 13 20 12.5523 20 12C20 11.4477 19.5523 11 19 11H6C5.44772 11 5 11.4477 5 12C5 12.5523 5.44772 13 6 13ZM19 19H6C5.44772 19 5 18.5523 5 18C5 17.4477 5.44772 17 6 17H19C19.5523 17 20 17.4477 20 18C20 18.5523 19.5523 19 19 19Z" fill="black"/>
<mask id="mask0" mask-type="alpha" maskUnits="userSpaceOnUse" x="5" y="5" width="15" height="14">
<path fill-rule="evenodd" clip-rule="evenodd" d="M6 7H19C19.5523 7 20 6.55228 20 6C20 5.44772 19.5523 5 19 5H6C5.44772 5 5 5.44772 5 6C5 6.55228 5.44772 7 6 7ZM6 13H19C19.5523 13 20 12.5523 20 12C20 11.4477 19.5523 11 19 11H6C5.44772 11 5 11.4477 5 12C5 12.5523 5.44772 13 6 13ZM19 19H6C5.44772 19 5 18.5523 5 18C5 17.4477 5.44772 17 6 17H19C19.5523 17 20 17.4477 20 18C20 18.5523 19.5523 19 19 19Z" fill="white"/>
</mask>
<g mask="url(#mask0)">
<rect width="24" height="24" fill="white"/>
</g>
</svg>
