<svg width="32" height="32" viewBox="0 0 32 32" fill="none" xmlns="http://www.w3.org/2000/svg">
<path d="M6.27614 16.3905C5.75544 15.8698 4.91122 15.8698 4.39052 16.3905C3.86983 16.9112 3.86983 17.7554 4.39052 18.2761L11.0572 24.9428C11.5779 25.4635 12.4221 25.4635 12.9428 24.9428L27.6095 10.2761C28.1302 9.75544 28.1302 8.91122 27.6095 8.39052C27.0888 7.86983 26.2446 7.86983 25.7239 8.39052L12 22.1144L6.27614 16.3905Z" fill="black"/>
<mask id="mask0" mask-type="alpha" maskUnits="userSpaceOnUse" x="4" y="8" width="25" height="18">
<path d="M6.27614 16.3905C5.75544 15.8698 4.91122 15.8698 4.39052 16.3905C3.86983 16.9112 3.86983 17.7554 4.39052 18.2761L11.0572 24.9428C11.5779 25.4635 12.4221 25.4635 12.9428 24.9428L27.6095 10.2761C28.1302 9.75544 28.1302 8.91122 27.6095 8.39052C27.0888 7.86983 26.2446 7.86983 25.7239 8.39052L12 22.1144L6.27614 16.3905Z" fill="white"/>
</mask>
<g mask="url(#mask0)">
<rect width="32" height="32" fill="#2281D6"/>
</g>
</svg>
