<svg width="18" height="17" viewBox="0 0 18 17" fill="none" xmlns="http://www.w3.org/2000/svg">
<path fill-rule="evenodd" clip-rule="evenodd" d="M10.7404 6.27205C11.2614 5.0634 12.6697 4.50333 13.8859 5.02108C15.102 5.53883 15.6656 6.93836 15.1447 8.14702C14.6237 9.35568 13.2154 9.91575 11.9992 9.39799C11.4146 9.14909 10.9535 8.67939 10.7177 8.09239C10.4818 7.50655 10.4905 6.85143 10.7421 6.27205H10.7404ZM11.1736 7.91572C11.5645 8.8863 12.6732 9.35814 13.6499 8.9696C14.6266 8.58107 15.1014 7.47926 14.7103 6.50864C14.5233 6.04427 14.1589 5.67237 13.6968 5.47414C13.2314 5.27358 12.7046 5.26659 12.234 5.45476C11.2574 5.8433 10.7826 6.94511 11.1736 7.91572Z" fill="#2281D6"/>
<path d="M1.60827 3.60909L0.21703 3.77061C0.0823753 3.78624 -0.0140446 3.90734 0.00168004 4.04116C0.0174046 4.17498 0.13926 4.2708 0.273915 4.25517L1.66516 4.09365C1.79981 4.07802 1.89623 3.95693 1.88051 3.82311C1.86482 3.68929 1.74293 3.59346 1.60827 3.60909Z" fill="#2281D6"/>
<path d="M1.93441 2.24569L0.647191 1.69652C0.52241 1.64346 0.377963 1.70092 0.324572 1.82493C0.271182 1.94893 0.329001 2.09249 0.453782 2.14555L1.74101 2.69471C1.86579 2.74777 2.01023 2.69031 2.06362 2.56631C2.11706 2.4423 2.0592 2.29875 1.93441 2.24569Z" fill="#2281D6"/>
<path d="M2.90849 1.22605L2.06334 0.111563C1.98212 0.00362668 1.8282 -0.0184208 1.7196 0.0622989C1.61099 0.143019 1.5888 0.295978 1.67002 0.403914L2.51517 1.5184C2.59639 1.62634 2.75031 1.64839 2.85892 1.56767C2.96753 1.48695 2.98975 1.33399 2.90849 1.22605Z" fill="#2281D6"/>
<path fill-rule="evenodd" clip-rule="evenodd" d="M14.4638 3.73953C16.3002 4.53183 17.2057 6.60195 16.536 8.47692C18.0817 9.18922 18.1873 10.1018 17.7664 11.1065C17.5105 11.6501 17.203 12.1682 16.8481 12.6538L16.8456 12.6574C15.9346 13.9986 14.9821 15.4007 16.6595 16.5303C16.7649 16.6151 16.7812 16.7686 16.6959 16.8733C16.6207 16.9658 16.4892 16.9908 16.3849 16.9325C14.3024 15.528 15.3955 13.9154 16.4384 12.3769L16.4401 12.3744C16.7757 11.9177 17.0679 11.4311 17.3129 10.9207C17.625 10.1745 17.5339 9.48803 16.3377 8.92756C15.7661 10.0401 14.6797 10.8013 13.4334 10.9627L11.9511 14.3918C11.5288 15.3681 10.39 15.8194 9.40753 15.3997C8.42509 14.98 7.97103 13.8482 8.39336 12.8719L9.71471 9.8143C8.34933 9.0463 6.91259 8.072 5.56811 7.16026L5.56807 7.16023L5.56806 7.16023L5.56374 7.1573C4.81936 6.65335 4.10099 6.16879 3.45087 5.74884C3.212 5.60202 3.02468 5.38538 2.91453 5.1286C2.80974 4.88402 2.80974 4.60758 2.91453 4.363L3.95796 1.94019C4.0621 1.69505 4.26221 1.5026 4.51218 1.40718C4.77503 1.30994 5.06173 1.29585 5.33295 1.3668H5.3427C6.04431 1.53765 6.85217 1.71143 7.69317 1.89234L7.81801 1.9192L7.97895 1.95438C10.225 2.44526 12.6599 2.97743 14.4345 3.73145L14.441 3.72984L14.4638 3.73953ZM3.36473 4.95739C3.43722 5.11936 3.55806 5.25527 3.71092 5.34665L3.94658 5.49364L5.49385 1.91435L5.22406 1.84974H5.2143C5.04198 1.8027 4.85926 1.80948 4.69096 1.86913C4.5633 1.91815 4.46123 2.01671 4.40816 2.14209L3.36473 4.5649C3.31118 4.69032 3.31118 4.83197 3.36473 4.95739ZM11.5155 14.2141C11.1958 14.9156 10.3762 15.2416 9.6577 14.9529C8.91792 14.6557 8.56068 13.8187 8.85981 13.0835L10.16 10.0711C10.5469 10.2811 10.9288 10.4733 11.2977 10.6348H11.3091L11.3319 10.6445H11.3432H11.3546L11.4326 10.6784L11.4538 10.6881C11.5144 10.7129 11.5751 10.7366 11.6358 10.7592L11.6813 10.7883H11.6976H11.7122C12.09 10.9178 12.486 10.9871 12.8856 10.9934L11.5155 14.2141ZM13.2416 10.5008C14.4483 10.3877 15.4967 9.62892 15.9753 8.52214C16.7061 6.8555 15.939 4.91568 14.262 4.1894L14.2525 4.18532C12.4777 3.42779 9.98776 2.89316 7.72049 2.4086L7.70033 2.40428C7.11252 2.27819 6.53911 2.15519 5.98794 2.02903L4.37078 5.76661C4.84049 6.07673 5.33458 6.41269 5.83354 6.7535C5.86147 6.77238 5.88944 6.79129 5.91745 6.81023C7.80618 8.0872 9.87065 9.483 11.6179 10.2326H11.6293C12.1308 10.4497 12.6786 10.5396 13.2237 10.4943L13.2107 10.5008H13.2416Z" fill="#2281D6"/>
</svg>
