<svg width="44" height="32" viewBox="0 0 44 32" fill="none" xmlns="http://www.w3.org/2000/svg">
<path fill-rule="evenodd" clip-rule="evenodd" d="M43.2266 15.3265H39.5059C41.0527 11.8468 40.8855 9.03001 40.3002 7.12451C39.2969 3.72775 35.9107 0.0410156 30.8941 0.0410156C29.5563 0.0410156 28.2185 0.289559 26.839 0.786647C24.4561 1.65655 22.8675 2.6093 22.1568 3.10639C21.4461 2.6093 19.8993 1.65655 17.4746 0.786647C16.095 0.289559 14.7154 0.0410156 13.4195 0.0410156C8.40285 0.0410156 5.01663 3.72775 4.0133 7.12451C3.42803 9.15428 3.219 12.2197 5.18385 16.0721H0.668884C0.292637 16.0721 0 16.3621 0 16.7349C0 17.1077 0.292637 17.3976 0.668884 17.3976H5.97815C6.18717 17.7705 6.438 18.1433 6.73064 18.5161C11.0784 24.7297 20.5264 31.4818 22.2404 31.896V31.9375C22.2404 31.9375 22.2822 31.9375 22.324 31.896H22.4494V31.8546C23.9126 31.1504 32.9843 25.351 37.7501 18.4747C38.21 17.8533 38.5862 17.232 38.9207 16.6106H43.3102C43.6865 16.6106 43.9791 16.3206 43.9791 15.9478C43.9791 15.575 43.6029 15.3265 43.2266 15.3265ZM36.5378 17.7705C32.1242 24.1654 24.0198 29.3275 22.22 30.4739L22.1986 30.4876C20.4009 29.3692 12.2907 24.1498 7.81758 17.7705L7.56675 17.3976H13.7121C13.9629 17.3976 14.2138 17.2734 14.3392 17.0248L17.1401 11.5569L21.5297 22.6999C21.6133 22.9485 21.9059 23.1142 22.1568 23.1142H22.1986C22.4912 23.1142 22.742 22.907 22.8257 22.6171L26.6717 9.56852L28.7202 16.1549C28.8038 16.4035 29.0128 16.5692 29.2637 16.6106C29.5145 16.652 29.7653 16.5277 29.9325 16.3206L31.5629 13.9595L32.9425 16.2792C33.0679 16.4863 33.277 16.6106 33.5278 16.6106H37.2903C37.0394 17.0248 36.7886 17.3976 36.5378 17.7705ZM33.9458 15.3265H38.0428C39.3805 12.551 39.7568 9.89992 39.0461 7.49733C38.1682 4.55623 35.2418 1.40801 30.9359 1.40801C29.7653 1.40801 28.553 1.61513 27.3406 2.07079C24.247 3.18924 22.6166 4.47338 22.6166 4.47338C22.3658 4.6805 22.0314 4.6805 21.7805 4.47338C21.7744 4.47338 21.7342 4.44583 21.6604 4.39528C21.2306 4.10075 19.6613 3.02541 17.0565 2.07079C15.8442 1.65655 14.6318 1.40801 13.4613 1.40801C9.11354 1.40801 6.22898 4.55623 5.35107 7.49733C4.59858 10.107 5.05843 13.0067 6.73064 16.0307H13.3777L16.6803 9.60995C16.8057 9.3614 17.0147 9.23713 17.3074 9.23713C17.5582 9.23713 17.809 9.40283 17.8926 9.65137L22.115 20.3388L26.0029 7.04166C26.0865 6.7517 26.3791 6.54458 26.6717 6.54458C26.9644 6.586 27.257 6.7517 27.3406 7.04166L29.6399 14.4565L31.0613 12.3854C31.1867 12.1782 31.3957 12.0954 31.6466 12.0954C31.8974 12.0954 32.1064 12.2197 32.2318 12.4268L33.9458 15.3265Z" fill="#2281D6"/>
</svg>
