<svg width="32" height="32" viewBox="0 0 32 32" fill="none" xmlns="http://www.w3.org/2000/svg">
<path fill-rule="evenodd" clip-rule="evenodd" d="M20.2667 15.4662V20.3201C21.4821 20.5681 22.4 21.6454 22.4 22.9329V26.1329V31.4662C22.4 31.7606 22.1611 31.9995 21.8667 31.9995H19.7333C19.4389 31.9995 19.2 31.7606 19.2 31.4662V29.8662H3.2V31.4662C3.2 31.7606 2.96107 31.9995 2.66667 31.9995H0.533333C0.238933 31.9995 0 31.7606 0 31.4662V26.1329V22.9329C0 21.6454 0.917867 20.5681 2.13333 20.3201V15.4662C2.13333 14.5841 2.8512 13.8662 3.73333 13.8662H18.6667C19.5488 13.8662 20.2667 14.5841 20.2667 15.4662ZM3.73333 14.9329C3.43947 14.9329 3.2 15.1723 3.2 15.4662V20.2662H4.26667V18.1329C4.26667 17.2507 4.98453 16.5329 5.86667 16.5329H9.06667C9.9488 16.5329 10.6667 17.2507 10.6667 18.1329V20.2662H11.7333V18.1329C11.7333 17.2507 12.4512 16.5329 13.3333 16.5329H16.5333C17.4155 16.5329 18.1333 17.2507 18.1333 18.1329V20.2662H19.2V15.4662C19.2 15.1723 18.9605 14.9329 18.6667 14.9329H3.73333ZM17.0667 18.1329V20.2662H12.8V18.1329C12.8 17.839 13.0395 17.5995 13.3333 17.5995H16.5333C16.8272 17.5995 17.0667 17.839 17.0667 18.1329ZM9.6 20.2662V18.1329C9.6 17.839 9.36053 17.5995 9.06667 17.5995H5.86667C5.5728 17.5995 5.33333 17.839 5.33333 18.1329V20.2662H9.6ZM21.3333 30.9329H20.2667V29.3329C20.2667 29.0385 20.0277 28.7995 19.7333 28.7995H2.66667C2.37227 28.7995 2.13333 29.0385 2.13333 29.3329V30.9329H1.06667V26.6662H21.3333V30.9329ZM1.06667 25.5995H21.3333V22.9329C21.3333 22.0507 20.6155 21.3329 19.7333 21.3329H17.6H12.2667H10.1333H4.8H2.66667C1.78453 21.3329 1.06667 22.0507 1.06667 22.9329V25.5995Z" fill="#2281D6"/>
<path fill-rule="evenodd" clip-rule="evenodd" d="M23.9982 20.2666H31.4648C31.7592 20.2666 31.9982 20.5055 31.9982 20.7999V25.0666V28.7999H30.9315V25.5999H24.5315V28.7999H23.4648V25.0666V20.7999C23.4648 20.5055 23.7038 20.2666 23.9982 20.2666ZM24.5315 24.5333H30.9315V21.3333H24.5315V24.5333Z" fill="#2281D6"/>
<rect x="26.668" y="22.4004" width="2.13333" height="1.06667" fill="#2281D6"/>
<path fill-rule="evenodd" clip-rule="evenodd" d="M29.3061 12.6309L30.3727 15.8309C30.4266 15.9935 30.3994 16.1722 30.2991 16.3114C30.1989 16.4511 30.0378 16.5333 29.8666 16.5333H28.2666V18.1333H29.3333V19.1999H26.1333V18.1333H27.1999V16.5333H25.5999C25.4287 16.5333 25.2677 16.4511 25.1674 16.3119C25.0671 16.1727 25.0394 15.9941 25.0938 15.8314L26.1605 12.6314C26.2335 12.4133 26.4367 12.2666 26.6666 12.2666H28.7999C29.0298 12.2666 29.233 12.4133 29.3061 12.6309ZM27.0511 13.3333L26.3397 15.4666H29.1269L28.4159 13.3333H27.0511Z" fill="#2281D6"/>
<path d="M31.6848 6.97973L16.2181 0.0464C16.0789 -0.0154667 15.9205 -0.0154667 15.7819 0.0464L0.3152 6.97973C0.1232 7.06613 0 7.25653 0 7.46667V13.8667H1.06667V7.81173L16 1.11787L30.9333 7.81227V13.8667H32V7.46667C32 7.25653 31.8768 7.06613 31.6848 6.97973Z" fill="#2281D6"/>
<path d="M19.6806 7.37807L18.6283 7.55514C18.6534 7.70074 18.6656 7.85007 18.6656 7.99993C18.6656 9.47034 17.4694 10.6666 15.999 10.6666C14.5286 10.6666 13.3323 9.47034 13.3323 7.99993C13.3323 6.52953 14.5286 5.33327 15.999 5.33327C16.304 5.33327 16.6038 5.38447 16.8886 5.48527L17.2438 4.4794C16.8443 4.33807 16.4256 4.2666 15.999 4.2666C13.9403 4.2666 12.2656 5.94127 12.2656 7.99993C12.2656 10.0586 13.9403 11.7333 15.999 11.7333C18.0576 11.7333 19.7323 10.0586 19.7323 7.99993C19.7323 7.79087 19.7147 7.5818 19.6806 7.37807Z" fill="#2281D6"/>
<path d="M19.3547 4.42285L15.9984 7.77912L15.3088 7.08952L14.5547 7.84365L15.6214 8.91032C15.7254 9.01432 15.8619 9.06659 15.9984 9.06659C16.135 9.06659 16.2715 9.01432 16.3755 8.91032L20.1088 5.17698L19.3547 4.42285Z" fill="#2281D6"/>
</svg>
