<svg width="14" height="13" viewBox="0 0 14 13" fill="none" xmlns="http://www.w3.org/2000/svg">
<path fill-rule="evenodd" clip-rule="evenodd" d="M3.91141 5.31122V12.9469H0.68622V5.31122H3.91141ZM1.08937 3.63071C0.766848 3.29351 0.605591 2.89107 0.605591 2.42335C0.605591 1.95563 0.769536 1.55318 1.09743 1.21599C1.42533 0.878798 1.82578 0.710205 2.29881 0.710205C2.77184 0.710205 3.1723 0.878798 3.50019 1.21599C3.82809 1.55318 3.99204 1.95563 3.99204 2.42335C3.99204 2.89107 3.82809 3.29351 3.50019 3.63071C3.1723 3.9679 2.77184 4.13649 2.29881 4.13649C1.82578 4.13649 1.42264 3.9679 1.08937 3.63071ZM10.2489 12.9469V8.65592C10.2489 8.43838 10.1844 8.25891 10.0554 8.11751C9.92638 7.9761 9.75974 7.9054 9.55548 7.9054C9.35122 7.9054 9.18458 7.9761 9.05558 8.11751C8.92657 8.25891 8.86207 8.43838 8.86207 8.65592V12.9469H5.63688V5.31122H8.86207V6.15963C9.41035 5.46349 10.1521 5.11543 11.0874 5.11543C11.7862 5.11543 12.3587 5.36288 12.8049 5.85779C13.251 6.3527 13.4741 7.02435 13.4741 7.87277V12.9469H10.2489Z" fill="white"/>
</svg>
