<svg width="13" height="18" viewBox="0 0 13 18" fill="none" xmlns="http://www.w3.org/2000/svg">
<path fill-rule="evenodd" clip-rule="evenodd" d="M12.262 1.74618C12.2539 1.73837 12.2454 1.73085 12.2361 1.72382L12.2285 1.71788C12.1754 1.6728 12.1201 1.63027 12.0627 1.59036L10.2471 0.193816C10.085 0.0686953 9.88131 0 9.67425 0H3.32302C3.11596 0 2.91259 0.0686953 2.74987 0.193816L0.93543 1.58941C0.877074 1.62991 0.820885 1.67312 0.767008 1.71896L0.760724 1.72382C0.751877 1.73064 0.743572 1.73788 0.735699 1.7454C0.300813 2.12984 0.0273438 2.68439 0.0273438 3.30001V17.7C0.0273438 17.8659 0.165397 18 0.33548 18H12.6614C12.8318 18 12.9695 17.8659 12.9695 17.7V3.30001C12.9696 2.68481 12.6964 2.13057 12.262 1.74618ZM3.13192 0.664488C3.18616 0.623074 3.25394 0.599977 3.32299 0.599977H9.67421C9.74293 0.599977 9.81071 0.622793 9.86495 0.664488L10.561 1.19999H2.43574L3.13192 0.664488ZM0.643652 17.4H12.3533H12.3533V3.30001C12.3533 2.86031 12.158 2.46421 11.8473 2.1896L11.6831 2.06329C11.4353 1.89738 11.1354 1.8 10.8125 1.8H2.1844C1.85995 1.8 1.55878 1.89837 1.31023 2.06575L1.15365 2.18619C0.840747 2.46094 0.643652 2.85845 0.643652 3.30001V17.4Z" fill="#2281D6"/>
<path fill-rule="evenodd" clip-rule="evenodd" d="M10.5061 2.40039H2.4943C1.81451 2.40039 1.26172 2.9386 1.26172 3.60038V16.2004C1.26172 16.5313 1.53811 16.8004 1.87803 16.8004H3.41878H5.57577H7.42466H9.58168H11.1224C11.4623 16.8004 11.7387 16.5313 11.7387 16.2004V3.60038C11.7387 2.93856 11.1859 2.40039 10.5061 2.40039ZM2.4943 3.00037H10.5062C10.846 3.00037 11.1225 3.26945 11.1225 3.60038V10.2004H10.0804L10.133 10.0981C10.1756 10.015 10.1981 9.92225 10.1981 9.82957V7.33267C10.1981 7.14399 10.1386 6.96307 10.0258 6.80916L9.87252 6.60037H9.88989C10.0603 6.60037 10.198 6.46596 10.198 6.30038C10.198 6.13479 10.0603 6.00039 9.88989 6.00039H9.27355H7.73279H7.11649C6.94608 6.00039 6.80835 6.13479 6.80835 6.30038C6.80835 6.46596 6.94608 6.60037 7.11649 6.60037H7.13382L6.98031 6.80948C6.86782 6.96307 6.80835 7.14399 6.80835 7.33267V9.82957C6.80835 9.92196 6.83085 10.015 6.87306 10.0978L6.92578 10.2004H5.61166L5.88022 6.53828C5.89932 6.33307 5.84447 6.12607 5.72523 5.95479L5.32404 5.38298C5.29013 5.33439 5.27225 5.27737 5.27225 5.21859V4.19828C5.27103 4.03748 5.20538 3.88659 5.08798 3.77377C4.96997 3.66067 4.81744 3.60217 4.65132 3.60038H4.03751C3.87512 3.60006 3.71673 3.66099 3.59901 3.77377C3.48129 3.88687 3.41596 4.03748 3.41474 4.20036V5.21855C3.41474 5.27733 3.39657 5.33404 3.36328 5.38206L2.96082 5.95567C2.84219 6.12636 2.78734 6.33307 2.80612 6.53259L3.075 10.2004H1.87799V3.60038C1.87799 3.26949 2.15439 3.00037 2.4943 3.00037ZM7.42466 7.33267V9.82957L7.61511 10.2003H9.39127L9.58172 9.82954V7.33264C9.58172 7.26964 9.562 7.20934 9.52409 7.15805L9.11487 6.60037H7.89121L7.48168 7.15837C7.44437 7.20938 7.42466 7.26967 7.42466 7.33267ZM3.69286 10.2004L3.5608 8.40037H5.12568L4.99373 10.2004H3.69286ZM3.47017 6.29349C3.43167 6.34868 3.4138 6.41678 3.42026 6.48428L3.42878 6.60037H5.25767L5.26575 6.48998C5.27254 6.41646 5.25467 6.34837 5.21552 6.29257L4.81433 5.72076C4.71015 5.57138 4.65562 5.39795 4.65562 5.21887V4.20036H4.03502L4.03072 5.21887C4.03072 5.39827 3.97616 5.57138 3.87262 5.71988L3.47017 6.29349ZM3.4728 7.20038H5.21368L5.1697 7.80039H3.51682L3.4728 7.20038ZM3.41871 15.8293L3.60916 16.2004H5.38528L5.57573 15.8296V13.333C5.57573 13.2709 5.5554 13.2088 5.51842 13.1584L5.10889 12.6004H3.88523L3.47602 13.1581C3.43904 13.2085 3.41871 13.2706 3.41871 13.3327V15.8293ZM7.61511 16.2004L7.42466 15.8293V12.7327C7.42466 12.6694 7.44437 12.6091 7.48168 12.5581L7.89121 12.0004H9.11487L9.52441 12.5581C9.562 12.6091 9.58172 12.6694 9.58172 12.7327V15.8296L9.39127 16.2004H7.61511ZM10.133 16.0978L10.0802 16.2004H11.1224V10.8004H9.58168H7.42466H3.40029H3.39484H1.87799V16.2003H2.91987L2.86715 16.0978C2.82493 16.015 2.80244 15.9219 2.80244 15.8296V13.333C2.80244 13.144 2.86191 12.9634 2.97469 12.8098L3.1283 12.6004H3.11057C2.94049 12.6004 2.80244 12.4663 2.80244 12.3004C2.80244 12.1345 2.94049 12.0004 3.11057 12.0004H3.72688H5.26756H5.88387C6.05395 12.0004 6.19201 12.1345 6.19201 12.3004C6.19201 12.4663 6.05395 12.6004 5.88387 12.6004H5.86607L6.01947 12.8095C6.13257 12.9631 6.19204 13.144 6.19204 13.3327V15.8293C6.19204 15.922 6.16954 16.0147 6.127 16.0978L6.07428 16.2004H6.92575L6.87302 16.0978C6.83081 16.015 6.80831 15.922 6.80831 15.8296V12.7327C6.80831 12.5437 6.86779 12.3628 6.98056 12.2095L7.13407 12.0004H7.11649C6.94608 12.0004 6.80835 11.8663 6.80835 11.7004C6.80835 11.5345 6.94608 11.4004 7.11649 11.4004H7.73279H9.27355H9.88982C10.0602 11.4004 10.198 11.5345 10.198 11.7004C10.198 11.8663 10.0602 12.0004 9.88982 12.0004H9.87223L10.0257 12.2095C10.1385 12.3628 10.198 12.544 10.198 12.7327V15.8293C10.198 15.922 10.1755 16.0147 10.133 16.0978Z" fill="#2281D6"/>
</svg>
