<svg width="32" height="32" viewBox="0 0 32 32" fill="none" xmlns="http://www.w3.org/2000/svg">
<path fill-rule="evenodd" clip-rule="evenodd" d="M8.62639 6.78848L24.1543 22.3164C24.9691 23.1312 24.9691 24.457 24.1543 25.2719C23.7469 25.6793 23.2118 25.883 22.6766 25.883C22.1415 25.883 21.6063 25.6793 21.1989 25.2719L17.4705 21.5434C16.9486 21.0215 16.8042 20.22 17.111 19.5491C17.1335 19.5004 17.1434 19.4384 17.1193 19.4143L16.4907 18.7857C16.464 18.759 16.4336 18.7534 16.4128 18.7534C16.392 18.7534 16.3616 18.759 16.3349 18.7857C15.9996 19.121 15.5537 19.3057 15.0795 19.3057C14.6051 19.3057 14.1592 19.121 13.8239 18.7857L9.93433 14.8961C7.99096 12.9527 7.03764 11.0238 7.10058 9.16298C7.14958 7.71586 7.82864 6.8638 7.85752 6.82823C7.95002 6.71436 8.08652 6.64498 8.23314 6.63736C8.37933 6.63011 8.52258 6.68467 8.62639 6.78848ZM21.9321 24.5388C22.3427 24.9494 23.0108 24.9494 23.4213 24.5388C23.832 24.1282 23.832 23.4602 23.4213 23.0495L8.37696 8.00523C7.98746 8.96005 7.65752 11.1532 10.6674 14.1631L14.557 18.0527C14.6965 18.1922 14.8821 18.269 15.0794 18.269C15.2767 18.269 15.4622 18.1922 15.6018 18.0527C15.8184 17.8361 16.1064 17.7167 16.4128 17.7167C16.7191 17.7167 17.0071 17.836 17.2238 18.0527L17.8524 18.6813C18.1841 19.0129 18.2631 19.5228 18.054 19.9804C17.9262 20.2596 17.9864 20.593 18.2036 20.8103L21.9321 24.5388Z" fill="#2281D6"/>
<path d="M24.6227 7.85398C24.4203 7.65154 24.0921 7.65154 23.8898 7.85398L20.5816 11.1622C20.3791 11.3646 20.3791 11.6929 20.5816 11.8953C20.6827 11.9965 20.8154 12.0472 20.9481 12.0472C21.0807 12.0472 21.2134 11.9966 21.3146 11.8953L24.6227 8.58704C24.8251 8.3846 24.8251 8.05635 24.6227 7.85398Z" fill="#2281D6"/>
<path d="M23.2132 6.02195C23.0108 5.81951 22.6825 5.81951 22.4802 6.02195L19.1081 9.39407C18.5911 9.91101 18.286 10.5678 18.271 11.1961L18.2478 12.1608L17.3081 13.1005C17.1056 13.3029 17.1056 13.6312 17.3081 13.8335C17.4093 13.9348 17.5419 13.9854 17.6746 13.9854C17.8072 13.9854 17.9399 13.9348 18.0411 13.8335L19.1275 12.7471C19.2216 12.6529 19.276 12.5261 19.2792 12.393L19.3073 11.2209C19.316 10.8616 19.5155 10.4527 19.8411 10.127L23.2131 6.75495C23.4156 6.55251 23.4156 6.22426 23.2132 6.02195Z" fill="#2281D6"/>
<path d="M14.3511 20.3464C14.1487 20.1439 13.8205 20.1439 13.6181 20.3464L9.47103 24.4934C9.27209 24.6924 9.00766 24.8019 8.72641 24.8019C8.44516 24.8019 8.18066 24.6923 7.98178 24.4934C7.78284 24.2945 7.67334 24.03 7.67334 23.7488C7.67334 23.4675 7.78291 23.203 7.98178 23.0042L11.9849 19.001C12.1873 18.7986 12.1873 18.4704 11.9849 18.268C11.7825 18.0656 11.4542 18.0656 11.2519 18.268L7.24878 22.2712C6.85409 22.6659 6.63672 23.1907 6.63672 23.7489C6.63672 24.3071 6.85416 24.8319 7.24878 25.2265C7.64341 25.6212 8.16828 25.8386 8.72647 25.8386C9.28466 25.8386 9.80941 25.6212 10.2042 25.2265L14.3512 21.0795C14.5535 20.8769 14.5535 20.5487 14.3511 20.3464Z" fill="#2281D6"/>
<path d="M26.5292 9.3403C26.3268 9.13787 25.9985 9.13787 25.7962 9.3403L22.4242 12.7123C22.1039 13.0326 21.6933 13.2189 21.3195 13.2149L20.101 13.1964C19.9622 13.1945 19.8257 13.2491 19.7266 13.3482L18.6401 14.4347C18.4377 14.6371 18.4377 14.9654 18.6401 15.1677C18.7413 15.2689 18.874 15.3196 19.0066 15.3196C19.1392 15.3196 19.2719 15.269 19.3731 15.1677L20.3045 14.2363L21.3037 14.2514C21.9602 14.2615 22.635 13.9676 23.1572 13.4453L26.5292 10.0733C26.7317 9.87087 26.7317 9.54268 26.5292 9.3403Z" fill="#2281D6"/>
<path fill-rule="evenodd" clip-rule="evenodd" d="M16 0C20.2738 0 24.2917 1.66425 27.3137 4.68631C30.3358 7.70825 32 11.7262 32 16C32 20.2738 30.3356 24.2916 27.3137 27.3137C24.2917 30.3358 20.2738 32 16 32C11.7262 32 7.70837 30.3356 4.68631 27.3137C1.66425 24.2917 0 20.2738 0 16C0 11.7262 1.66438 7.70837 4.68631 4.68631C7.70825 1.66425 11.7262 0 16 0ZM16 30.9633C19.9969 30.9633 23.7544 29.4069 26.5807 26.5807C29.4068 23.7544 30.9633 19.9969 30.9633 16C30.9633 12.0031 29.4069 8.24556 26.5807 5.41931C23.7544 2.59312 19.9968 1.03669 16 1.03669C12.0032 1.03669 8.24556 2.59319 5.41931 5.41931C2.59319 8.24556 1.03669 12.0032 1.03669 16C1.03669 19.9968 2.59319 23.7544 5.41931 26.5807C8.24556 29.4069 12.0031 30.9633 16 30.9633Z" fill="#2281D6"/>
</svg>
