<?xml version="1.0" encoding="UTF-8"?>
<svg width="21px" height="20px" viewBox="0 0 21 20" version="1.1" xmlns="http://www.w3.org/2000/svg" xmlns:xlink="http://www.w3.org/1999/xlink">
    <!-- Generator: Sketch 49.3 (51167) - http://www.bohemiancoding.com/sketch -->
    <title>Combined Shape</title>
    <desc>Created with Sketch.</desc>
    <defs>
        <path d="M16.1641057,13.7618116 L20.6920429,18.2928932 C21.0822961,18.6834175 21.0822961,19.3165825 20.6920429,19.7071068 C20.3017896,20.0976311 19.669064,20.0976311 19.2788107,19.7071068 L14.7508735,15.1760252 C13.3045852,16.3182963 11.4782043,17 9.49271339,17 C4.80155077,17 0.998612075,13.1944204 0.998612075,8.5 C0.998612075,3.80557963 4.80155077,0 9.49271339,0 C14.183876,0 17.9868147,3.80557963 17.9868147,8.5 C17.9868147,10.4868697 17.3055841,12.3145189 16.1641057,13.7618116 Z M14.1492386,13.0317433 C15.2873065,11.8609174 15.9882026,10.2623671 15.9882026,8.5 C15.9882026,4.91014913 13.080073,2 9.49271339,2 C5.90535374,2 2.99722415,4.91014913 2.99722415,8.5 C2.99722415,12.0898509 5.90535374,15 9.49271339,15 C11.2538574,15 12.8512984,14.2986171 14.0213119,13.1597589 C14.0404899,13.1367843 14.060859,13.1144685 14.0824193,13.0928932 C14.1039796,13.071318 14.12628,13.0509347 14.1492386,13.0317433 Z" id="path-1"></path>
    </defs>
    <g id="Design-Concept" stroke="none" stroke-width="1" fill="none" fill-rule="evenodd">
        <g id="News-in-Copy-2" transform="translate(-1310.000000, -29.000000)">
            <g id="header">
                <g id="btn/search" transform="translate(1279.111728, 0.000000)">
                    <g id="search" transform="translate(29.979875, 29.000000)">
                        <mask id="mask-2" fill="white">
                            <use xlink:href="#path-1"></use>
                        </mask>
                        <use id="Combined-Shape" fill="#F6F9FE" fill-rule="nonzero" xlink:href="#path-1"></use>
                    </g>
                </g>
            </g>
        </g>
    </g>
</svg>