<svg width="20" height="18" viewBox="0 0 20 18" fill="none" xmlns="http://www.w3.org/2000/svg">
<path fill-rule="evenodd" clip-rule="evenodd" d="M19.5652 0H0.434783C0.194251 0 0 0.194888 0 0.434783V17.343C0 17.5829 0.194251 17.7778 0.434783 17.7778H3.91304C4.15357 17.7778 4.34783 17.5829 4.34783 17.343V16.5217H15.6522V17.343C15.6522 17.5829 15.8464 17.7778 16.087 17.7778H19.5652C19.8057 17.7778 20 17.5829 20 17.343V0.434783C20 0.194888 19.8057 0 19.5652 0ZM0.869565 4.34783H3.47826V12.1739H0.869565V4.34783ZM0.869565 16.9082H3.47826V16.5217H0.869565V16.9082ZM19.1304 16.9082H16.5217V16.5217H19.1304V16.9082ZM0.869565 15.6522H19.1304V0.869565H0.869565V3.47826H3.91304C4.15357 3.47826 4.34783 3.67315 4.34783 3.91304V12.6087C4.34783 12.8486 4.15357 13.0435 3.91304 13.0435H0.869565V15.6522Z" fill="#2281D6"/>
<path fill-rule="evenodd" clip-rule="evenodd" d="M16.5222 8.26112C16.5222 10.8981 14.3766 13.0437 11.7396 13.0437C9.10271 13.0437 6.95703 10.8981 6.95703 8.26112C6.95703 5.62419 9.10271 3.47852 11.7396 3.47852C14.3766 3.47852 16.5222 5.62419 16.5222 8.26112ZM15.627 7.82634C15.41 5.87279 13.7505 4.34808 11.7396 4.34808C9.72877 4.34808 8.06925 5.87279 7.85228 7.82634H9.60967C9.81178 6.83556 10.6896 6.08721 11.7396 6.08721C12.7897 6.08721 13.6675 6.83556 13.8696 7.82634H15.627ZM13.044 8.26112C13.044 8.98017 12.4587 9.56547 11.7396 9.56547C11.0206 9.56547 10.4353 8.98017 10.4353 8.26112C10.4353 7.54208 11.0206 6.95678 11.7396 6.95678C12.4587 6.95678 13.044 7.54208 13.044 8.26112ZM11.7396 10.435C10.6896 10.435 9.81178 9.68669 9.60967 8.69591H7.85228C8.06925 10.6495 9.72877 12.1742 11.7396 12.1742C13.7505 12.1742 15.41 10.6495 15.627 8.69591H13.8696C13.6675 9.68669 12.7897 10.435 11.7396 10.435Z" fill="#2281D6"/>
</svg>
