<svg width="32" height="29" viewBox="0 0 32 29" fill="none" xmlns="http://www.w3.org/2000/svg">
<path fill-rule="evenodd" clip-rule="evenodd" d="M31.907 19.5511C31.9523 19.6959 31.9349 19.8394 31.8857 19.9697C31.9177 20.1093 31.9376 20.2527 31.9377 20.4028V25.668V28.3007C31.9377 28.664 31.6396 28.9588 31.2723 28.9588H28.6108C28.2435 28.9588 27.9454 28.664 27.9454 28.3007V26.3262H3.9922V28.3007C3.9922 28.664 3.6941 28.9588 3.32688 28.9588H0.665388C0.298105 28.9588 0 28.664 0 28.3007V25.668V20.4028C0 20.2527 0.019961 20.1093 0.0518986 19.9697C0.00268226 19.8381 -0.0145965 19.6946 0.0306277 19.5511L2.66149 11.0939V3.29076C2.66149 1.4769 4.1532 0 5.9883 0H25.9493C27.7844 0 29.2761 1.4769 29.2761 3.29076V11.0938L31.907 19.5511ZM5.9883 1.31629C4.88777 1.31629 3.9922 2.20215 3.9922 3.29076V10.5305H5.80067L6.42077 8.07817C6.64434 7.19885 7.4414 6.58281 8.3583 6.58281H12.6419C13.7425 6.58281 14.638 7.46867 14.638 8.55728V10.5305H17.2995V8.55599C17.2995 7.46738 18.1951 6.58152 19.2956 6.58152H23.5793C24.4962 6.58152 25.2933 7.19626 25.5168 8.07687L26.137 10.5305H27.9454V3.29076C27.9454 2.20215 27.0499 1.31629 25.9493 1.31629H5.9883ZM24.7703 11.594C24.6426 11.7546 24.4509 11.8467 24.2446 11.8467H19.2956C18.9297 11.8467 18.6302 11.5519 18.6302 11.1886V8.55599C18.6302 8.19269 18.9297 7.89781 19.2956 7.89781H23.5806C23.8867 7.89781 24.1515 8.10186 24.226 8.39538L24.8914 11.028C24.942 11.2268 24.8981 11.4321 24.7703 11.594ZM13.3087 11.182V8.55599C13.3087 8.19269 13.0093 7.89781 12.6434 7.89787H8.35973C8.05233 7.89787 7.78754 8.10322 7.713 8.39544L7.04761 11.0281C6.99702 11.2255 7.04094 11.4322 7.16869 11.5941C7.29644 11.7547 7.48675 11.8468 7.69435 11.8468H12.6434C13.008 11.8468 13.3061 11.5533 13.3074 11.1913V11.1886C13.3074 11.1873 13.3077 11.1863 13.308 11.1853C13.3084 11.1843 13.3087 11.1834 13.3087 11.182ZM3.81786 11.8467H5.82063C5.89118 12.0442 5.983 12.2337 6.11736 12.4048C6.50062 12.8866 7.07418 13.163 7.69297 13.163H12.642C13.5083 13.163 14.2402 12.6102 14.5156 11.8467H17.422C17.6974 12.6115 18.4293 13.163 19.2956 13.163H24.2446C24.8634 13.163 25.4356 12.8866 25.8189 12.4048C25.9533 12.235 26.0451 12.0442 26.1156 11.8467H28.1197L30.1744 18.452C30.1538 18.4496 30.1332 18.4467 30.1127 18.4439L30.1127 18.4439C30.0564 18.4361 30 18.4283 29.9415 18.4283H1.9961C1.93706 18.4283 1.88021 18.4363 1.82392 18.4441L1.82387 18.4441L1.82383 18.4441L1.82379 18.4441C1.804 18.4469 1.78428 18.4496 1.76455 18.452L3.81786 11.8467ZM1.33071 27.6425H2.66143V26.3262H1.33071V27.6425ZM30.6069 27.6425H29.2762V26.3262H30.6069V27.6425ZM1.33071 25.0099H30.6069V20.4028C30.6069 20.0395 30.3075 19.7446 29.9415 19.7446H1.9961C1.63013 19.7446 1.33071 20.0395 1.33071 20.4028V25.0099Z" fill="#4A90E2"/>
</svg>
