<svg width="32" height="29" viewBox="0 0 32 29" fill="none" xmlns="http://www.w3.org/2000/svg">
<path fill-rule="evenodd" clip-rule="evenodd" d="M13.1519 27.6898C13.5104 27.6898 13.7971 27.9759 13.7971 28.3336C13.7971 28.6847 13.5104 28.9773 13.1454 28.9773H4.14501C1.85743 28.9773 0 27.1241 0 24.8419V5.63423C0 5.27661 0.286762 4.99051 0.645214 4.99051H5.20733C5.31813 2.23356 7.59267 0.0292969 10.3821 0.0292969C13.1715 0.0292969 15.446 2.24006 15.5568 4.99051H20.1189C20.4774 4.99051 20.7642 5.27661 20.7642 5.63423V7.54589C20.7642 7.90351 20.4774 8.18961 20.1189 8.18961C19.7605 8.18961 19.4737 7.90351 19.4737 7.54589V6.27795H15.5633V8.70329C15.5633 9.06091 15.2766 9.34701 14.9181 9.34701C14.5597 9.34701 14.2729 9.06091 14.2729 8.70329V6.27795H6.49776V8.70329C6.49776 9.06091 6.211 9.34701 5.85255 9.34701C5.49409 9.34701 5.20733 9.06091 5.20733 8.70329V6.27795H1.29694V24.8419C1.29694 26.4089 2.57434 27.6898 4.15153 27.6898H13.1519ZM14.2664 4.99051C14.1556 2.9488 12.4546 1.31674 10.3821 1.31674C8.30957 1.31674 6.60855 2.9488 6.49776 4.99051H14.2664Z" fill="#2281D6"/>
<path fill-rule="evenodd" clip-rule="evenodd" d="M19.2792 12.9882V13.7229H15.7272C15.3688 13.7229 15.082 14.009 15.082 14.3667V25.661C15.082 27.4882 16.568 28.9707 18.3993 28.9707H28.625C30.4564 28.9707 31.9423 27.4882 31.9423 25.661V14.3667C31.9423 14.009 31.6556 13.7229 31.2971 13.7229H27.7452V12.9882C27.7452 10.6604 25.8486 8.76172 23.5089 8.76172C21.1757 8.76822 19.2792 10.6604 19.2792 12.9882ZM27.1 17.2536C27.4584 17.2536 27.7452 16.9675 27.7452 16.6099V15.0104H30.6519V25.661C30.6519 26.7794 29.7395 27.6832 28.625 27.6832H18.3993C17.2784 27.6832 16.3725 26.7729 16.3725 25.661V15.0104H19.2792V16.6099C19.2792 16.9675 19.5659 17.2536 19.9244 17.2536C20.2828 17.2536 20.5696 16.9675 20.5696 16.6099V15.0104H26.4547V16.6099C26.4547 16.9675 26.7415 17.2536 27.1 17.2536ZM26.4547 13.7229V12.9882C26.4547 11.3691 25.1317 10.0557 23.5154 10.0492C21.8926 10.0492 20.5696 11.3691 20.5696 12.9882V13.7229H26.4547Z" fill="#2281D6"/>
</svg>
