<svg width="24" height="24" viewBox="0 0 24 24" fill="none" xmlns="http://www.w3.org/2000/svg">
<g opacity="0.1">
<path d="M8.24683 7.34647L11.1044 1.55738C11.4712 0.814208 12.531 0.814208 12.8978 1.55738L15.7554 7.34647L22.1457 8.28051C22.9656 8.40036 23.2924 9.4082 22.6988 9.98636L18.0756 14.4894L19.1667 20.851C19.3068 21.6679 18.4493 22.2909 17.7156 21.9051L12.0011 18.8998L6.28654 21.9051C5.55291 22.2909 4.69536 21.6679 4.83548 20.851L5.92657 14.4894L1.30336 9.98636C0.709762 9.4082 1.03655 8.40036 1.85646 8.28051L8.24683 7.34647Z" fill="black"/>
<mask id="mask0" mask-type="alpha" maskUnits="userSpaceOnUse" x="1" y="1" width="23" height="22">
<path d="M8.24683 7.34647L11.1044 1.55738C11.4712 0.814208 12.531 0.814208 12.8978 1.55738L15.7554 7.34647L22.1457 8.28051C22.9656 8.40036 23.2924 9.4082 22.6988 9.98636L18.0756 14.4894L19.1667 20.851C19.3068 21.6679 18.4493 22.2909 17.7156 21.9051L12.0011 18.8998L6.28654 21.9051C5.55291 22.2909 4.69536 21.6679 4.83548 20.851L5.92657 14.4894L1.30336 9.98636C0.709762 9.4082 1.03655 8.40036 1.85646 8.28051L8.24683 7.34647Z" fill="white"/>
</mask>
<g mask="url(#mask0)">
<rect width="24" height="24" fill="#2281D6"/>
</g>
</g>
</svg>
