<?xml version="1.0" encoding="UTF-8"?>
<svg width="96px" height="26px" viewBox="0 0 96 26" version="1.1" xmlns="http://www.w3.org/2000/svg" xmlns:xlink="http://www.w3.org/1999/xlink">
    <!-- Generator: Sketch 49.3 (51167) - http://www.bohemiancoding.com/sketch -->
    <title>Logo/color</title>
    <desc>Created with Sketch.</desc>
    <defs></defs>
    <g id="Symbols" stroke="none" stroke-width="1" fill="none" fill-rule="evenodd">
        <g id="component/footer" transform="translate(-104.000000, -492.000000)" fill="#FFFFFF">
            <g id="footer">
                <g id="info" transform="translate(104.000000, 461.000000)">
                    <g id="Logo/black_white" transform="translate(0.000000, 31.000000)">
                        <g id="Logo">
                            <path d="M0,24.5936259 L0,19.8536705 L1.0275251,19.8536705 L1.0275251,24.5936259 L0,24.5936259 Z M5.35285037,24.5936259 L4.37739579,24.5936259 L4.37739579,22.8412004 C4.37739579,22.4704517 4.35656779,22.2306541 4.31491116,22.1218006 C4.27325453,22.0129471 4.20556351,21.9283443 4.11183609,21.8679899 C4.01810867,21.8076354 3.90529032,21.7774587 3.77337766,21.7774587 C3.60443687,21.7774587 3.45285529,21.8205683 3.31862837,21.906789 C3.18440145,21.9930096 3.0924111,22.1072502 3.04265457,22.2495143 C2.99289804,22.3917783 2.96802014,22.6547473 2.96802014,23.0384291 L2.96802014,24.5936259 L1.99256557,24.5936259 L1.99256557,21.1599065 L2.89859277,21.1599065 L2.89859277,21.6642947 C3.22027454,21.2763018 3.62526349,21.0823083 4.11357178,21.0823083 C4.32879771,21.0823083 4.52550663,21.1184127 4.70370444,21.1906224 C4.88190225,21.2628322 5.01670572,21.3549791 5.10811888,21.467066 C5.19953204,21.5791528 5.26317316,21.7063263 5.29904415,21.8485903 C5.33491514,21.9908544 5.35285037,22.1945476 5.35285037,22.459676 L5.35285037,24.5936259 Z M5.91521208,21.1599065 L6.45674558,21.1599065 L6.45674558,20.9012459 C6.45674558,20.6124068 6.48972325,20.3968585 6.55567958,20.2545944 C6.62163591,20.1123304 6.7431326,19.9964731 6.92017328,19.9070192 C7.09721397,19.8175653 7.321115,19.7728391 7.59188311,19.7728391 C7.86959398,19.7728391 8.14151513,19.8116378 8.40765472,19.8892363 L8.27574272,20.5229548 C8.12068748,20.4884665 7.97142012,20.4712227 7.82793617,20.4712227 C7.68676647,20.4712227 7.58551924,20.5019383 7.52419142,20.5633705 C7.4628636,20.6248027 7.43220015,20.7428154 7.43220015,20.9174122 L7.43220015,21.1599065 L8.16118755,21.1599065 L8.16118755,21.8744564 L7.43220015,21.8744564 L7.43220015,24.5936259 L6.45674558,24.5936259 L6.45674558,21.8744564 L5.91521208,21.8744564 L5.91521208,21.1599065 Z M8.70966379,24.5936259 L8.70966379,19.8536705 L9.68511836,19.8536705 L9.68511836,24.5936259 L8.70966379,24.5936259 Z M10.4592336,22.8282674 C10.4592336,22.5264951 10.5390742,22.2344271 10.698758,21.9520546 C10.8584417,21.669682 11.084657,21.4541337 11.3774106,21.3054031 C11.6701641,21.1566725 11.997048,21.0823083 12.3580722,21.0823083 C12.9158082,21.0823083 13.3728671,21.2509749 13.7292628,21.5883131 C14.0856584,21.9256513 14.2638535,22.3518982 14.2638535,22.8670664 C14.2638535,23.3865457 14.0839227,23.8171036 13.7240557,24.1587528 C13.3641887,24.500402 12.9111796,24.6712241 12.3650149,24.6712241 C12.0271334,24.6712241 11.7048779,24.6000932 11.3982388,24.4578291 C11.0915997,24.3155651 10.8584417,24.1070221 10.698758,23.8321938 C10.5390742,23.5573655 10.4592336,23.2227267 10.4592336,22.8282674 Z M11.4589877,22.8767662 C11.4589877,23.2173377 11.5457711,23.4781512 11.7193404,23.6592145 C11.8929097,23.8402778 12.1069752,23.9308081 12.3615435,23.9308081 C12.6161119,23.9308081 12.8295989,23.8402778 13.0020111,23.6592145 C13.1744232,23.4781512 13.260628,23.2151822 13.260628,22.8702997 C13.260628,22.5340392 13.1744232,22.2753812 13.0020111,22.0943179 C12.8295989,21.9132546 12.6161119,21.8227243 12.3615435,21.8227243 C12.1069752,21.8227243 11.8929097,21.9132546 11.7193404,22.0943179 C11.5457711,22.2753812 11.4589877,22.5361947 11.4589877,22.8767662 Z M16.7181111,21.1599065 L16.7181111,21.8841562 L16.0516084,21.8841562 L16.0516084,23.2679904 C16.0516084,23.5482074 16.0579725,23.7114853 16.0707009,23.7578289 C16.0834293,23.8041725 16.1123571,23.8424323 16.1574851,23.8726095 C16.2026131,23.9027867 16.2575759,23.9178751 16.3223751,23.9178751 C16.4126311,23.9178751 16.5433847,23.8887761 16.7146398,23.8305772 L16.7979526,24.5354273 C16.5711554,24.625959 16.3142767,24.6712241 16.0273088,24.6712241 C15.8514252,24.6712241 15.692901,24.6437417 15.5517313,24.588776 C15.4105616,24.5338104 15.3070001,24.4626794 15.2410438,24.375381 C15.1750875,24.2880827 15.1293816,24.1700699 15.1039247,24.0213394 C15.0830964,23.9157191 15.0726824,23.7023262 15.0726824,23.3811544 L15.0726824,21.8841562 L14.6248759,21.8841562 L14.6248759,21.1599065 L15.0726824,21.1599065 L15.0726824,20.4776892 L16.0516084,19.947435 L16.0516084,21.1599065 L16.7181111,21.1599065 Z M22.6333232,22.8509002 L23.629606,23.1451266 C23.476865,23.6624504 23.2228791,24.0466653 22.8676406,24.2977829 C22.5124021,24.5489005 22.0617072,24.6744574 21.5155425,24.6744574 C20.8397794,24.6744574 20.284366,24.4594479 19.8492856,24.0294225 C19.4142052,23.5993971 19.1966683,23.011489 19.1966683,22.2656806 C19.1966683,21.4767618 19.4153623,20.8640656 19.852757,20.4275737 C20.2901516,19.9910817 20.8652359,19.7728391 21.5780272,19.7728391 C22.2005624,19.7728391 22.70622,19.9442 23.0950152,20.286927 C23.326441,20.4895455 23.5000077,20.7805357 23.6157205,21.1599065 L22.5986095,21.3862345 C22.5384388,21.1405057 22.4128923,20.9465122 22.221966,20.8042482 C22.0310398,20.6619841 21.799039,20.5908532 21.5259566,20.5908532 C21.1487327,20.5908532 20.8426767,20.716949 20.6077796,20.9691443 C20.3728825,21.2213397 20.2554357,21.6298038 20.2554357,22.1945489 C20.2554357,22.7937823 20.3711468,23.220568 20.6025726,23.4749188 C20.8339983,23.7292697 21.1348472,23.8564432 21.5051284,23.8564432 C21.7782108,23.8564432 22.0131044,23.7756126 22.2098162,23.6139489 C22.4065281,23.4522852 22.5476957,23.1979382 22.6333232,22.8509002 Z M25.438189,24.5936259 L24.4627345,24.5936259 L24.4627345,21.1599065 L25.3687617,21.1599065 L25.3687617,21.6481284 C25.5238169,21.4174882 25.6632488,21.2655266 25.7870616,21.1922391 C25.9108743,21.1189515 26.0514634,21.0823083 26.2088329,21.0823083 C26.4310016,21.0823083 26.6450671,21.1394286 26.851036,21.253671 L26.549027,22.045819 C26.3847147,21.9466653 26.231976,21.8970892 26.0908063,21.8970892 C25.9542651,21.8970892 25.838554,21.9321158 25.7436695,22.0021701 C25.6487849,22.0722243 25.5741512,22.198859 25.5197662,22.3820778 C25.4653811,22.5652967 25.438189,22.9489727 25.438189,23.5331175 L25.438189,24.5936259 Z M29.6975583,24.5936259 L29.6975583,24.079538 C29.5633314,24.2627568 29.3868719,24.4071742 29.1681746,24.5127945 C28.9494773,24.6184148 28.7186336,24.6712241 28.4756365,24.6712241 C28.228011,24.6712241 28.0058456,24.6205702 27.8091338,24.519261 C27.6124219,24.4179518 27.4700972,24.2756899 27.3821554,24.092471 C27.2942137,23.9092522 27.2502434,23.6559829 27.2502434,23.3326555 L27.2502434,21.1599065 L28.225698,21.1599065 L28.225698,22.7377361 C28.225698,23.2205717 28.2436332,23.5164118 28.2795042,23.6252653 C28.3153752,23.7341189 28.380752,23.8203382 28.4756365,23.8839259 C28.5705211,23.9475136 28.6908607,23.979307 28.8366589,23.979307 C29.0032854,23.979307 29.1525528,23.9367362 29.2844654,23.8515933 C29.4163781,23.7664505 29.5066328,23.6608318 29.5552322,23.5347341 C29.6038316,23.4086364 29.6281309,23.0998634 29.6281309,22.6084058 L29.6281309,21.1599065 L30.6035855,21.1599065 L30.6035855,24.5936259 L29.6975583,24.5936259 Z M31.6137537,20.6943174 L31.6137537,19.8536705 L32.5892083,19.8536705 L32.5892083,20.6943174 L31.6137537,20.6943174 Z M31.6137537,24.5936259 L31.6137537,21.1599065 L32.5892083,21.1599065 L32.5892083,24.5936259 L31.6137537,24.5936259 Z M33.245297,23.6139489 L34.2242229,23.4749188 C34.2658796,23.6516711 34.3503487,23.78585 34.4776328,23.8774594 C34.604917,23.9690688 34.7831121,24.0148728 35.0122236,24.0148728 C35.2644776,24.0148728 35.4542439,23.9717632 35.581528,23.8855425 C35.6671556,23.8251881 35.7099687,23.7443575 35.7099687,23.6430482 C35.7099687,23.5740717 35.6868265,23.5169514 35.6405413,23.4716856 C35.5919419,23.4285753 35.4831734,23.3886988 35.3142327,23.3520551 C34.5273852,23.1903914 34.0286702,23.0427408 33.8180728,22.9090988 C33.5264764,22.7237244 33.3806804,22.4661442 33.3806804,22.1363503 C33.3806804,21.8388891 33.5068055,21.588853 33.7590595,21.3862345 C34.0113136,21.183616 34.4024172,21.0823083 34.9323821,21.0823083 C35.4368902,21.0823083 35.8117943,21.158828 36.0571055,21.3118696 C36.3024168,21.4649112 36.4713551,21.691237 36.5639254,21.9908537 L35.6440127,22.1492833 C35.6046703,22.0156413 35.5300366,21.9132558 35.4201094,21.8421238 C35.3101822,21.7709918 35.1533936,21.7354263 34.949739,21.7354263 C34.6928564,21.7354263 34.5088757,21.7688363 34.3977914,21.8356573 C34.3237351,21.8830787 34.2867076,21.9445099 34.2867076,22.019953 C34.2867076,22.0846185 34.3191067,22.1395833 34.3839059,22.1848491 C34.4718477,22.2452036 34.7755894,22.3303452 35.2951401,22.4402765 C35.8146909,22.5502078 36.1774453,22.6849255 36.3834142,22.8444336 C36.5870688,23.0060973 36.6888946,23.2313453 36.6888946,23.5201845 C36.6888946,23.8348898 36.547727,24.1054029 36.2653877,24.3317321 C35.9830483,24.5580612 35.5653311,24.6712241 35.0122236,24.6712241 C34.5100298,24.6712241 34.112562,24.5763828 33.8198085,24.3866975 C33.5270549,24.1970121 33.335553,23.9394318 33.245297,23.6139489 Z M39.677743,23.5007849 L40.6497262,23.652748 C40.5247563,23.9846974 40.3274688,24.2374279 40.0578578,24.4109469 C39.7882469,24.5844659 39.4509489,24.6712241 39.0459539,24.6712241 C38.4049046,24.6712241 37.930489,24.4761529 37.6226928,24.0860045 C37.3796958,23.7734547 37.2581991,23.3790013 37.2581991,22.9026323 C37.2581991,22.3335761 37.4178804,21.8879299 37.7372479,21.5656803 C38.0566154,21.2434307 38.4604473,21.0823083 38.9487556,21.0823083 C39.4972346,21.0823083 39.9299942,21.2509749 40.2470474,21.5883131 C40.5641007,21.9256513 40.7156823,22.4424285 40.7017967,23.1386601 L38.2579532,23.1386601 C38.264896,23.4080995 38.3435796,23.6177203 38.4940063,23.7675286 C38.644433,23.917337 38.831885,23.99224 39.056368,23.99224 C39.209109,23.99224 39.3375483,23.9534413 39.4416899,23.8758428 C39.5458315,23.7982442 39.6245151,23.6732262 39.677743,23.5007849 Z M39.7332849,22.5825398 C39.7263421,22.3195669 39.6534441,22.1196458 39.5145887,21.9827705 C39.3757332,21.8458953 39.206795,21.7774587 39.0077688,21.7774587 C38.7948572,21.7774587 38.6189763,21.8496674 38.4801208,21.9940869 C38.3412654,22.1385065 38.2729958,22.3346555 38.2753101,22.5825398 L39.7332849,22.5825398 Z M47.9812566,24.0148728 L47.391124,24.7164897 C47.1018418,24.5850033 46.8241351,24.4039426 46.5579955,24.1733025 C46.3520266,24.3457437 46.1333326,24.4729172 45.9019069,24.5548268 C45.6704811,24.6367364 45.3950886,24.6776906 45.0757211,24.6776906 C44.4416146,24.6776906 43.9648848,24.5117184 43.6455173,24.179769 C43.3978917,23.9232626 43.2740808,23.6279614 43.2740808,23.2938564 C43.2740808,22.9899287 43.3712782,22.7167212 43.5656758,22.4742257 C43.7600734,22.2317301 44.0505083,22.0210316 44.4369893,21.8421238 C44.26342,21.6502829 44.1326664,21.4676057 44.0447247,21.2940867 C43.9567829,21.1205677 43.9128127,20.9562121 43.9128127,20.8010149 C43.9128127,20.5143313 44.036045,20.2713006 44.2825134,20.0719154 C44.5289818,19.8725302 44.8801651,19.7728391 45.3360738,19.7728391 C45.7757827,19.7728391 46.1194447,19.87738 46.3670703,20.086465 C46.6146958,20.2955501 46.7385067,20.5509748 46.7385067,20.852747 C46.7385067,21.0445879 46.6771798,21.2267263 46.5545242,21.3991676 C46.4318685,21.5716088 46.1842467,21.7666801 45.8116513,21.9843872 L46.5198105,22.8541334 C46.6031237,22.7161804 46.6748646,22.5361975 46.7350353,22.3141794 L47.6167629,22.5017083 C47.5288212,22.792703 47.4524518,23.005557 47.3876526,23.1402767 C47.3228534,23.2749964 47.2534267,23.3876204 47.1793705,23.4781521 C47.2881406,23.5729948 47.4287296,23.6769969 47.6011418,23.7901614 C47.773554,23.903326 47.9002576,23.9782291 47.9812566,24.0148728 Z M45.3256597,21.4379666 L45.5894837,21.2504377 C45.7838813,21.1103292 45.8810786,20.9713005 45.8810786,20.8333475 C45.8810786,20.7169496 45.8342156,20.6177974 45.7404882,20.5358878 C45.6467608,20.4539782 45.5200571,20.413024 45.3603734,20.413024 C45.2053181,20.413024 45.0838214,20.4491284 44.9958797,20.5213382 C44.9079379,20.5935479 44.8639677,20.6770729 44.8639677,20.7719156 C44.8639677,20.8840024 44.9380228,21.0197979 45.0861352,21.179306 L45.3256597,21.4379666 Z M44.9438091,22.4241102 C44.7193262,22.5297304 44.551545,22.656904 44.4404607,22.8056346 C44.3293763,22.9543651 44.273835,23.1063267 44.273835,23.2615239 C44.273835,23.4576758 44.3426831,23.6177204 44.4803814,23.7416626 C44.6180797,23.8656047 44.802639,23.9275749 45.0340647,23.9275749 C45.1868057,23.9275749 45.3337588,23.8995536 45.4749285,23.8435102 C45.6160982,23.7874668 45.769994,23.694781 45.9366205,23.5654501 L44.9438091,22.4241102 Z M50.5951972,24.5936259 L50.5951972,19.8536705 L54.0839226,19.8536705 L54.0839226,20.6555183 L51.6227223,20.6555183 L51.6227223,21.7774587 L53.7471999,21.7774587 L53.7471999,22.5793065 L51.6227223,22.5793065 L51.6227223,24.5936259 L50.5951972,24.5936259 Z M57.0588855,23.5007849 L58.0308687,23.652748 C57.9058988,23.9846974 57.7086113,24.2374279 57.4390004,24.4109469 C57.1693894,24.5844659 56.8320915,24.6712241 56.4270964,24.6712241 C55.7860472,24.6712241 55.3116315,24.4761529 55.0038353,24.0860045 C54.7608383,23.7734547 54.6393416,23.3790013 54.6393416,22.9026323 C54.6393416,22.3335761 54.799023,21.8879299 55.1183905,21.5656803 C55.437758,21.2434307 55.8415898,21.0823083 56.3298981,21.0823083 C56.8783771,21.0823083 57.3111367,21.2509749 57.62819,21.5883131 C57.9452432,21.9256513 58.0968248,22.4424285 58.0829392,23.1386601 L55.6390958,23.1386601 C55.6460385,23.4080995 55.7247221,23.6177203 55.8751488,23.7675286 C56.0255755,23.917337 56.2130276,23.99224 56.4375105,23.99224 C56.5902515,23.99224 56.7186909,23.9534413 56.8228324,23.8758428 C56.926974,23.7982442 57.0056576,23.6732262 57.0588855,23.5007849 Z M57.1144274,22.5825398 C57.1074846,22.3195669 57.0345866,22.1196458 56.8957312,21.9827705 C56.7568757,21.8458953 56.5879375,21.7774587 56.3889114,21.7774587 C56.1759997,21.7774587 56.0001188,21.8496674 55.8612633,21.9940869 C55.7224079,22.1385065 55.6541383,22.3346555 55.6564526,22.5825398 L57.1144274,22.5825398 Z M59.8116808,24.5936259 L58.8362262,24.5936259 L58.8362262,21.1599065 L59.7422534,21.1599065 L59.7422534,21.6481284 C59.8973087,21.4174882 60.0367406,21.2655266 60.1605533,21.1922391 C60.2843661,21.1189515 60.4249551,21.0823083 60.5823246,21.0823083 C60.8044933,21.0823083 61.0185589,21.1394286 61.2245278,21.253671 L60.9225187,22.045819 C60.7582065,21.9466653 60.6054678,21.8970892 60.4642981,21.8970892 C60.3277569,21.8970892 60.2120458,21.9321158 60.1171612,22.0021701 C60.0222767,22.0722243 59.947643,22.198859 59.893258,22.3820778 C59.8388729,22.5652967 59.8116808,22.9489727 59.8116808,23.5331175 L59.8116808,24.5936259 Z M62.5783616,24.5936259 L61.602907,24.5936259 L61.602907,21.1599065 L62.5089342,21.1599065 L62.5089342,21.6481284 C62.6639894,21.4174882 62.8034213,21.2655266 62.9272341,21.1922391 C63.0510469,21.1189515 63.1916359,21.0823083 63.3490054,21.0823083 C63.5711741,21.0823083 63.7852397,21.1394286 63.9912086,21.253671 L63.6891995,22.045819 C63.5248872,21.9466653 63.3721486,21.8970892 63.2309789,21.8970892 C63.0944377,21.8970892 62.9787265,21.9321158 62.883842,22.0021701 C62.7889575,22.0722243 62.7143238,22.198859 62.6599387,22.3820778 C62.6055537,22.5652967 62.5783616,22.9489727 62.5783616,23.5331175 L62.5783616,24.5936259 Z M63.9495522,21.1599065 L64.9874914,21.1599065 L65.869219,23.5977826 L66.7301184,21.1599065 L67.7402867,21.1599065 L66.4385234,24.4642956 L66.2059417,25.0624483 C66.1203142,25.2629112 66.0387379,25.4159505 65.9612103,25.5215708 C65.8836826,25.6271911 65.7945851,25.7128716 65.6939149,25.7786148 C65.5932447,25.844358 65.4694338,25.8955508 65.3224784,25.9321945 C65.1755231,25.9688383 65.0094776,25.9871599 64.824337,25.9871599 C64.6368822,25.9871599 64.4529015,25.9688383 64.2723894,25.9321945 L64.1856052,25.2208779 C64.3383462,25.2488996 64.4760424,25.2629102 64.5986981,25.2629102 C64.8254953,25.2629102 64.9932764,25.2009401 65.1020465,25.0769979 C65.2108166,24.9530558 65.2941286,24.7951666 65.3519851,24.6033257 L63.9495522,21.1599065 Z M70.3403417,19.8536705 L71.3678668,19.8536705 L71.3678668,22.4208769 C71.3678668,22.8282694 71.3805951,23.0923161 71.4060519,23.213025 C71.4500228,23.4070214 71.5547413,23.5627551 71.7202107,23.6802307 C71.8856801,23.7977063 72.1118954,23.8564432 72.3988633,23.8564432 C72.6904597,23.8564432 72.9103109,23.8009395 73.0584233,23.6899305 C73.2065358,23.5789214 73.2956334,23.4425871 73.3257187,23.2809234 C73.3558041,23.1192597 73.3708465,22.850902 73.3708465,22.4758423 L73.3708465,19.8536705 L74.3983716,19.8536705 L74.3983716,22.3432787 C74.3983716,22.9123349 74.3706009,23.3143326 74.3150588,23.5492838 C74.2595166,23.784235 74.1571122,23.9825395 74.0078426,24.1442031 C73.8585731,24.3058668 73.6589714,24.434657 73.4090316,24.5305774 C73.1590918,24.6264979 72.8327864,24.6744574 72.4301056,24.6744574 C71.9441116,24.6744574 71.5755716,24.6221869 71.3244747,24.5176444 C71.0733778,24.4131019 70.8749332,24.2773064 70.729135,24.1102539 C70.5833368,23.9432015 70.4872966,23.7680684 70.4410114,23.5848496 C70.373898,23.3132546 70.3403417,22.9123347 70.3403417,22.3820778 L70.3403417,19.8536705 Z M75.4397822,24.5936259 L75.4397822,19.8536705 L76.4152368,19.8536705 L76.4152368,22.3691448 L77.557317,21.1599065 L78.7584106,21.1599065 L77.4983038,22.4144104 L78.8486661,24.5936259 L77.7968415,24.5936259 L76.869986,23.0513621 L76.4152368,23.4943184 L76.4152368,24.5936259 L75.4397822,24.5936259 Z M80.3621828,24.5936259 L79.3867283,24.5936259 L79.3867283,21.1599065 L80.2927555,21.1599065 L80.2927555,21.6481284 C80.4478107,21.4174882 80.5872426,21.2655266 80.7110554,21.1922391 C80.8348682,21.1189515 80.9754572,21.0823083 81.1328267,21.0823083 C81.3549954,21.0823083 81.569061,21.1394286 81.7750299,21.253671 L81.4730208,22.045819 C81.3087085,21.9466653 81.1559698,21.8970892 81.0148001,21.8970892 C80.878259,21.8970892 80.7625478,21.9321158 80.6676633,22.0021701 C80.5727787,22.0722243 80.4981451,22.198859 80.44376,22.3820778 C80.389375,22.5652967 80.3621828,22.9489727 80.3621828,23.5331175 L80.3621828,24.5936259 Z M82.9240529,22.2074819 L82.0388539,22.0587521 C82.1383669,21.7268027 82.3096194,21.4810775 82.5526164,21.3215694 C82.7956134,21.1620612 83.1566322,21.0823083 83.6356834,21.0823083 C84.0707638,21.0823083 84.394755,21.1302678 84.6076666,21.2261883 C84.8205783,21.3221087 84.9704242,21.4438935 85.0572089,21.5915464 C85.1439935,21.7391992 85.1873852,22.0102512 85.1873852,22.4047106 L85.1769711,23.4652191 C85.1769711,23.7669913 85.1925921,23.9895449 85.2238346,24.1328867 C85.255077,24.2762285 85.3135112,24.4298067 85.3991387,24.5936259 L84.4340982,24.5936259 C84.4086414,24.5332715 84.3773994,24.4438189 84.3403713,24.3252656 C84.3241715,24.2713777 84.3126003,24.2358122 84.3056576,24.2185681 C84.139031,24.3694542 83.9608359,24.482617 83.7710668,24.5580601 C83.5812977,24.6335031 83.3788032,24.6712241 83.1635773,24.6712241 C82.7840391,24.6712241 82.4849258,24.5753051 82.2662285,24.3834642 C82.0475312,24.1916233 81.9381842,23.9491314 81.9381842,23.6559813 C81.9381842,23.4619848 81.98794,23.2890073 82.087453,23.1370434 C82.1869661,22.9850796 82.326398,22.8686835 82.505753,22.7878516 C82.6851079,22.7070198 82.9437223,22.6364277 83.2816038,22.5760733 C83.7375125,22.4963192 84.0534039,22.421955 84.2292875,22.3529785 L84.2292875,22.2624473 C84.2292875,22.0878505 84.183003,21.9633714 84.0904327,21.8890061 C83.9978624,21.8146408 83.8231386,21.7774587 83.5662561,21.7774587 C83.3926868,21.7774587 83.2573047,21.8092521 83.1601059,21.8728398 C83.0629071,21.9364275 82.9842236,22.0479738 82.9240529,22.2074819 Z M84.2292875,22.9446646 C84.1043176,22.9834639 83.9064515,23.0298068 83.6356834,23.0836947 C83.3649153,23.1375826 83.1878773,23.1903919 83.104564,23.2421243 C82.9772799,23.3261894 82.9136388,23.4328859 82.9136388,23.5622168 C82.9136388,23.6893922 82.9645517,23.7993219 83.066379,23.8920091 C83.1682063,23.9846962 83.2978028,24.0310391 83.4551723,24.0310391 C83.6310558,24.0310391 83.798837,23.977152 83.9585207,23.8693763 C84.0765478,23.7874667 84.1540743,23.6872367 84.1911024,23.5686833 C84.2165592,23.4910847 84.2292875,23.3434341 84.2292875,23.125727 L84.2292875,22.9446646 Z M86.1489543,20.6943174 L86.1489543,19.8536705 L87.1244089,19.8536705 L87.1244089,20.6943174 L86.1489543,20.6943174 Z M86.1489543,24.5936259 L86.1489543,21.1599065 L87.1244089,21.1599065 L87.1244089,24.5936259 L86.1489543,24.5936259 Z M91.4775051,24.5936259 L90.5020505,24.5936259 L90.5020505,22.8412004 C90.5020505,22.4704517 90.4812225,22.2306541 90.4395659,22.1218006 C90.3979092,22.0129471 90.3302182,21.9283443 90.2364908,21.8679899 C90.1427634,21.8076354 90.029945,21.7774587 89.8980324,21.7774587 C89.7290916,21.7774587 89.57751,21.8205683 89.4432831,21.906789 C89.3090562,21.9930096 89.2170658,22.1072502 89.1673093,22.2495143 C89.1175527,22.3917783 89.0926749,22.6547473 89.0926749,23.0384291 L89.0926749,24.5936259 L88.1172203,24.5936259 L88.1172203,21.1599065 L89.0232475,21.1599065 L89.0232475,21.6642947 C89.3449292,21.2763018 89.7499182,21.0823083 90.2382265,21.0823083 C90.4534524,21.0823083 90.6501613,21.1184127 90.8283591,21.1906224 C91.006557,21.2628322 91.1413604,21.3549791 91.2327736,21.467066 C91.3241868,21.5791528 91.3878279,21.7063263 91.4236989,21.8485903 C91.4595698,21.9908544 91.4775051,22.1945476 91.4775051,22.459676 L91.4775051,24.5936259 Z M94.6017368,23.5007849 L95.57372,23.652748 C95.4487501,23.9846974 95.2514626,24.2374279 94.9818517,24.4109469 C94.7122407,24.5844659 94.3749427,24.6712241 93.9699477,24.6712241 C93.3288984,24.6712241 92.8544828,24.4761529 92.5466866,24.0860045 C92.3036896,23.7734547 92.1821929,23.3790013 92.1821929,22.9026323 C92.1821929,22.3335761 92.3418743,21.8879299 92.6612418,21.5656803 C92.9806093,21.2434307 93.3844411,21.0823083 93.8727494,21.0823083 C94.4212284,21.0823083 94.853988,21.2509749 95.1710413,21.5883131 C95.4880945,21.9256513 95.6396761,22.4424285 95.6257905,23.1386601 L93.1819471,23.1386601 C93.1888898,23.4080995 93.2675734,23.6177203 93.4180001,23.7675286 C93.5684268,23.917337 93.7558789,23.99224 93.9803618,23.99224 C94.1331028,23.99224 94.2615422,23.9534413 94.3656837,23.8758428 C94.4698253,23.7982442 94.5485089,23.6732262 94.6017368,23.5007849 Z M94.6572787,22.5825398 C94.6503359,22.3195669 94.5774379,22.1196458 94.4385825,21.9827705 C94.299727,21.8458953 94.1307888,21.7774587 93.9317627,21.7774587 C93.718851,21.7774587 93.5429701,21.8496674 93.4041146,21.9940869 C93.2652592,22.1385065 93.1969896,22.3346555 93.1993039,22.5825398 L94.6572787,22.5825398 Z" id="Inflot-Cruise-&amp;-Ferr"></path>
                            <path d="M0,0 L6.28969535,0 L6.28969535,17.9684605 L0,17.9684605 L0,0 Z M8.26978462,18.0780243 L8.26978462,0.109563783 L15.7242384,0.109563783 C19.5679411,3.72516864 23.295168,7.34077349 27.1388707,10.8468146 L27.1388707,0.109563783 L49.5022319,0.109563783 L49.5022319,14.0241643 L56.1413548,14.0241643 C53.2294588,8.32684754 56.1413548,2.41040324 61.6157192,0.109563783 L95.6266645,0.109563783 L95.6266645,5.25906161 L88.7545899,5.25906161 L88.7545899,18.0780243 L82.4648946,18.0780243 L82.4648946,5.25906161 L75.59282,5.25906161 C78.1552885,10.1894319 74.6610133,16.6536951 68.9536972,18.0780243 L43.0960607,18.0780243 L43.0960607,5.25906161 L33.5450419,5.25906161 L33.5450419,8.32684754 L40.4171164,8.32684754 L40.4171164,13.2572178 L33.5450419,13.2572178 L33.5450419,18.0780243 L26.0905881,18.0780243 C22.2468854,14.4624194 18.5196585,10.8468146 14.7924317,7.23120971 L14.7924317,18.0780243 L8.26978462,18.0780243 Z M65.8088495,4.16342377 C68.8372213,4.16342377 71.2832139,6.35469944 71.2832139,8.98423025 C71.2832139,11.613761 68.8372213,13.8050367 65.8088495,13.8050367 C62.7804776,13.8050367 60.334485,11.613761 60.334485,8.98423025 C60.334485,6.24513566 62.7804776,4.16342377 65.8088495,4.16342377 Z" id="Shape"></path>
                        </g>
                    </g>
                </g>
            </g>
        </g>
    </g>
</svg>